<svg xmlns="http://www.w3.org/2000/svg" width="33" height="33" viewBox="0 0 33 33"><path d="M33,16.5a16.5,16.5,0,0,1-33,0S16.5,0,16.5,0A16.5,16.5,0,0,1,33,16.5Z" fill="#0052b4"/><path d="M255.96,0h0Z" transform="translate(-239.46)" fill="#f0f0f0"/><path d="M255.315,255.359h.044v-.044Z" transform="translate(-238.859 -238.859)" fill="#f0f0f0"/><path d="M16.5,8.61V0h0A16.5,16.5,0,0,0,0,16.5H8.609V11.653L13.456,16.5h3l.044-.044v-3L11.652,8.61H16.5Z" transform="translate(0 -0.001)" fill="#f0f0f0"/><g transform="translate(2.152 2.152)"><path d="M39.586,33.391a16.579,16.579,0,0,0-6.2,6.2v8.152h4.3V37.7H47.739v-4.3Z" transform="translate(-33.391 -33.391)" fill="#d80027"/><path d="M141.457,139.429l-5.862-5.862h-2.029l7.891,7.891h0Z" transform="translate(-127.109 -127.11)" fill="#d80027"/></g><g transform="translate(6.272 7.174)"><path d="M100.991,300.522l.906,1.893,2.045-.473-.916,1.889,1.644,1.3-2.047.461.006,2.1-1.637-1.313L99.354,307.7l.006-2.1-2.048-.461,1.645-1.3-.916-1.889,2.045.473Z" transform="translate(-97.312 -288.326)" fill="#f0f0f0"/><path d="M356.583,356.174l.453.947,1.022-.236-.458.944.822.652-1.024.231,0,1.049-.819-.657-.819.657,0-1.049-1.024-.231.822-.652-.458-.944,1.022.236Z" transform="translate(-338.151 -340.391)" fill="#f0f0f0"/><path d="M291.231,200.348l.453.947,1.022-.236-.458.944.822.652-1.024.231,0,1.049-.819-.657-.819.657,0-1.049-1.024-.231.822-.652-.458-.944,1.022.236Z" transform="translate(-277.011 -194.609)" fill="#f0f0f0"/><path d="M356.583,111.3l.453.947,1.022-.236-.458.944.822.652-1.024.231,0,1.049-.819-.657-.819.657,0-1.049-1.024-.231.822-.652-.458-.944,1.022.236Z" transform="translate(-338.151 -111.304)" fill="#f0f0f0"/><path d="M413.666,178.087l.453.947,1.022-.236-.458.944.822.652-1.024.231,0,1.049-.819-.657-.819.657,0-1.049-1.024-.231.822-.652-.458-.944,1.022.236Z" transform="translate(-391.555 -173.783)" fill="#f0f0f0"/><path d="M377.652,256l.356,1.1h1.153l-.932.677.356,1.1-.932-.677-.932.677.356-1.1-.932-.677H377.3Z" transform="translate(-358.171 -246.674)" fill="#f0f0f0"/></g></svg>