<svg xmlns="http://www.w3.org/2000/svg" width="72.813" height="72.814" viewBox="0 0 72.813 72.814"><g transform="translate(-0.002)"><g transform="translate(0.002)"><path d="M68.795,40.111a26.172,26.172,0,0,0-35.8-36.269,1.422,1.422,0,0,0,1.486,2.425A23.327,23.327,0,0,1,66,39.184a1.423,1.423,0,0,0,.039,1.646L67.6,46.646,61.346,44.97a1.422,1.422,0,0,0-1.193.215,23.351,23.351,0,0,1-21.584,2.866,19.7,19.7,0,0,0-13.8-13.8,23.359,23.359,0,0,1,2.053-20.364,1.422,1.422,0,1,0-2.417-1.5,26.216,26.216,0,0,0-2.831,21.277q-.96-.095-1.944-.1A19.628,19.628,0,0,0,3.256,64.014L1.734,69.7a1.422,1.422,0,0,0,1.742,1.742L9.3,69.877a19.639,19.639,0,0,0,20.846-.115,1.422,1.422,0,0,0-1.526-2.4,16.792,16.792,0,0,1-18.291-.2,1.422,1.422,0,0,0-1.157-.191l-4.05,1.085,1.054-3.935a1.422,1.422,0,0,0-.216-1.194A16.777,16.777,0,1,1,35.4,58.937a1.422,1.422,0,0,0,2.672.974,19.565,19.565,0,0,0,1.182-6.722q0-.984-.1-1.944a26.214,26.214,0,0,0,22.089-3.357l8,2.143a1.422,1.422,0,0,0,1.742-1.742Z" transform="translate(-0.002)" fill="#fff"/></g><g transform="translate(38.072 29.196)"><path d="M283.6,205.3H269.119a1.422,1.422,0,0,0-1.422,1.422,8.665,8.665,0,1,0,17.329,0A1.422,1.422,0,0,0,283.6,205.3Zm-7.242,7.242a5.831,5.831,0,0,1-5.645-4.4h11.289A5.832,5.832,0,0,1,276.362,212.537Z" transform="translate(-267.697 -205.295)" fill="#fff"/></g><g transform="translate(54.993 20.63)"><path d="M389.5,145.739a1.422,1.422,0,0,0-1.957-.465l-.185.115a1.422,1.422,0,1,0,1.5,2.42l.182-.112A1.422,1.422,0,0,0,389.5,145.739Z" transform="translate(-386.679 -145.063)" fill="#fff"/></g><g transform="translate(35.452 20.63)"><path d="M252.089,145.739a1.422,1.422,0,0,0-1.957-.465l-.185.114a1.422,1.422,0,1,0,1.5,2.419l.182-.112A1.422,1.422,0,0,0,252.089,145.739Z" transform="translate(-249.272 -145.063)" fill="#fff"/></g><g transform="translate(10.384 51.766)"><path d="M75.429,364.416a1.421,1.421,0,1,0,.417,1.005A1.433,1.433,0,0,0,75.429,364.416Z" transform="translate(-73.001 -363.999)" fill="#fff"/></g><g transform="translate(18.205 51.766)"><path d="M130.429,364.416a1.421,1.421,0,1,0,.417,1.005A1.433,1.433,0,0,0,130.429,364.416Z" transform="translate(-128.001 -363.999)" fill="#fff"/></g><g transform="translate(26.027 51.766)"><path d="M185.428,364.416a1.421,1.421,0,1,0,.417,1.005A1.433,1.433,0,0,0,185.428,364.416Z" transform="translate(-183 -363.999)" fill="#fff"/></g><g transform="translate(32.393 63.172)"><path d="M230.188,444.615a1.421,1.421,0,1,0,.417,1.005A1.433,1.433,0,0,0,230.188,444.615Z" transform="translate(-227.76 -444.198)" fill="#fff"/></g><g transform="translate(27.776 7.202)"><path d="M197.729,51.056a1.423,1.423,0,1,0,.417,1.007A1.432,1.432,0,0,0,197.729,51.056Z" transform="translate(-195.301 -50.641)" fill="#fff"/></g></g></svg>