<?xml version="1.0"?>
<svg xmlns="http://www.w3.org/2000/svg" height="512px" viewBox="0 0 60 60" width="512px" class=""><g><path id="Shape" d="m1.051 50.465c1.29605246 1.1743852 3.29174885 1.1025401 4.5-.162l8.88-8.368 3.634 3.634-8.365 8.881c-1.26551892 1.2081041-1.33652208 3.2050678-.16 4.5 1.2957865 1.1746497 3.2914719 1.1032485 4.5-.161l8.88-8.369 4.646 4.647c.5627048.5633311 1.3262723.87986 2.1225.87986s1.5597952-.3165289 2.1225-.87986l4.245-4.244c1.1602326-1.1760199 1.158003-3.0667197-.005-4.24l-4.4-4.4 26.449-24.921c2.212-2.085 2.563-5.465.574-7.453-1.86-1.863-5.241-1.767-7.449.577l-24.925 26.448-3.134-3.134 26.447-24.923c3.517-3.314 1.82-8.81-2.754-8.758-1.570483.04834322-3.0555542.72619302-4.121 1.881l-24.925 26.449-4.4-4.4c-1.1753475-1.1637129-3.0686525-1.1637129-4.244 0l-4.241 4.24c-1.1686245 1.173323-1.1686245 3.070677 0 4.244l4.652 4.652-8.368 8.879c-1.26645492 1.2079372-1.33791326 3.205664-.161 4.501zm31.459-4.59-1.41 1.412c-.3581283.3949668-.3434114 1.0014399.0334529 1.3785711s.9833269.3922775 1.3785471.0344289l1.412-1.412.709.709c.187777.1875683.2932867.4420908.2932867.7075s-.1055097.5199317-.2932867.7075l-4.241 4.24c-.3968304.3757539-1.0181696.3757539-1.415 0l-.708-.708 1.415-1.415c.3789722-.3923789.3735524-1.0160848-.0121814-1.4018186s-1.0094397-.3911536-1.4018186-.0121814l-1.415 1.415-2.483-2.483 5.828-5.487zm20.169-34.117c.9172966-1.0593008 2.370445-1.4823693 3.713-1.081l-1.253 1.255c-.2860368.2861229-.3714873.7164079-.2164868 1.0901167.1550004.3737088.5199089.6172016.9244868.6168833.543 0 .676-.262 1.961-1.549.4006836 1.3435823-.0217133 2.7973316-1.08 3.717l-1.007.949-3.991-3.991zm-2.322 2.463 3.908 3.907-1.457 1.372-3.823-3.823zm-2.744 2.912 3.739 3.74-38.687 36.46c-.4316051.5037249-1.1780139.5908204-1.714.2-.3899479-.5365658-.3029512-1.2825624.2-1.715zm-22.687 21.157-5.488 5.823-3.551-3.551 5.823-5.488zm19.267-35.017c.9178128-1.05916468 2.3709415-1.48250483 3.714-1.082l-1.254 1.256c-.2853222.28621606-.3703185.71603682-.2154088 1.08930798.1549097.37327117.5192697.61660642.9234088.61669202.543 0 .677-.261 1.961-1.548.4007812 1.34327686-.021662 2.7967944-1.08 3.716l-1.007.949-3.99-3.99zm-2.321 2.463 3.907 3.907-1.456 1.372-3.823-3.823zm-33.4 27.41 1.413-1.416c.2599566-.2510745.3642126-.6228779.2726972-.9725073-.0915155-.3496295-.36456044-.6226744-.71418988-.7141899-.34962943-.0915154-.72143285.0127406-.97250732.2726972l-1.416 1.416-.708-.709c-.1880834-.1876085-.29378757-.4423455-.29378757-.708s.10570417-.5203915.29378757-.708l4.236-4.235c.1877666-.1893127.4433625-.2957983.71-.2957983s.5222334.1064856.71.2957983l.708.709-1.411 1.407c-.2859079.2859943-.3714219.7160366-.216678 1.0896546.1547439.3736179.5192821.6172591.923678.6173454.55 0 .668-.254 2.119-1.705l2.316 2.315-5.489 5.824zm-5.8 14.19c20.81-22.086 14.79-15.663 15.9-16.876l20.556-21.812 3.739 3.739-38.687 36.461c-.43219557.5034066-1.17856497.5904468-1.715.2-.38858868-.5362424-.30072319-1.2809241.202-1.712z" data-original="#000000" class="active-path" data-old_color="#000000" fill="#FFFFFF"/></g> </svg>
