<svg xmlns="http://www.w3.org/2000/svg" width="60" height="60" viewBox="0 0 60 60"><path d="M292.419,508.668q-.779.127-1.564.234Q291.64,508.8,292.419,508.668Zm0,0" transform="translate(-257.237 -449.479)" fill="#fff"/><path d="M300.084,507.793c-.248.046-.5.088-.745.13C299.588,507.881,299.836,507.839,300.084,507.793Zm0,0" transform="translate(-264.488 -448.817)" fill="#fff"/><path d="M279.443,510.34q-.912.1-1.833.181Q278.53,510.444,279.443,510.34Zm0,0" transform="translate(-245.601 -450.744)" fill="#fff"/><path d="M287.325,509.738c-.292.039-.586.075-.879.109C286.739,509.813,287.033,509.777,287.325,509.738Zm0,0" transform="translate(-253.135 -450.289)" fill="#fff"/><path d="M307.322,506.41c-.219.047-.439.093-.658.138C306.884,506.5,307.1,506.457,307.322,506.41Zm0,0" transform="translate(-270.932 -447.771)" fill="#fff"/><path d="M325.015,502.113c-.177.05-.354.1-.531.147C324.661,502.211,324.838,502.163,325.015,502.113Zm0,0" transform="translate(-286.634 -444.521)" fill="#fff"/><path d="M319.637,503.543c-.192.05-.385.1-.578.15Q319.349,503.621,319.637,503.543Zm0,0" transform="translate(-281.857 -445.602)" fill="#fff"/><path d="M312.681,505.254c-.2.048-.409.092-.615.138C312.272,505.346,312.477,505.3,312.681,505.254Zm0,0" transform="translate(-275.692 -446.897)" fill="#fff"/><path d="M274.466,511.09q-.492.041-.985.074Q273.974,511.131,274.466,511.09Zm0,0" transform="translate(-241.707 -451.312)" fill="#fff"/><path d="M60,30A30,30,0,1,0,30,60c.176,0,.352,0,.527-.007V36.639H24.082V29.128h6.445V23.6c0-6.411,3.913-9.9,9.632-9.9a53.057,53.057,0,0,1,5.778.3v6.7H41.994c-3.111,0-3.713,1.479-3.713,3.648v4.784H45.72l-.97,7.511H38.281v22.2A30.016,30.016,0,0,0,60,30Zm0,0" fill="#fff"/><path d="M266.844,511.43q-.973.063-1.954.1Q265.871,511.494,266.844,511.43Zm0,0" transform="translate(-234.381 -451.569)" fill="#fff"/><path d="M261.539,511.836q-.517.017-1.035.026Q261.022,511.853,261.539,511.836Zm0,0" transform="translate(-230.252 -451.876)" fill="#fff"/></svg>