<svg xmlns="http://www.w3.org/2000/svg" xmlns:xlink="http://www.w3.org/1999/xlink" width="15" height="16" viewBox="0 0 15 16"><defs><linearGradient id="a" y1="0.5" x2="1" y2="0.5" gradientUnits="objectBoundingBox"><stop offset="0.001" stop-color="#36bbdd"/><stop offset="0.067" stop-color="#4cc3e1"/><stop offset="0.245" stop-color="#82d5ea"/><stop offset="0.42" stop-color="#afe4f1"/><stop offset="0.586" stop-color="#d2f0f7"/><stop offset="0.742" stop-color="#ebf8fc"/><stop offset="0.884" stop-color="#fafdfe"/><stop offset="1" stop-color="#fff"/></linearGradient><linearGradient id="b" y1="0.5" x2="1" y2="0.5" gradientUnits="objectBoundingBox"><stop offset="0.006" stop-color="#36bbdd"/><stop offset="0.008" stop-color="#3abcde"/><stop offset="0.03" stop-color="#63cae5"/><stop offset="0.054" stop-color="#88d7eb"/><stop offset="0.08" stop-color="#a8e2f0"/><stop offset="0.109" stop-color="#c4ebf5"/><stop offset="0.142" stop-color="#daf2f9"/><stop offset="0.18" stop-color="#ebf8fc"/><stop offset="0.228" stop-color="#f6fcfe"/><stop offset="0.294" stop-color="#fdfeff"/><stop offset="0.479" stop-color="#fff"/><stop offset="0.682" stop-color="#fdfeff"/><stop offset="0.756" stop-color="#f6fcfe"/><stop offset="0.808" stop-color="#ebf8fc"/><stop offset="0.85" stop-color="#daf2f9"/><stop offset="0.887" stop-color="#c4ebf5"/><stop offset="0.919" stop-color="#a8e2f0"/><stop offset="0.948" stop-color="#88d7eb"/><stop offset="0.974" stop-color="#63cae5"/><stop offset="0.998" stop-color="#3abcde"/><stop offset="1" stop-color="#36bbdd"/></linearGradient><linearGradient id="c" x1="0.5" x2="0.5" y2="1" gradientUnits="objectBoundingBox"><stop offset="0" stop-color="#93c01f"/><stop offset="0.103" stop-color="#9bc42c"/><stop offset="0.294" stop-color="#b2d04f"/><stop offset="0.552" stop-color="#d5e287"/><stop offset="0.576" stop-color="#d9e48d"/><stop offset="0.669" stop-color="#e2e99b"/><stop offset="0.875" stop-color="#f2f1b4"/><stop offset="1" stop-color="#f8f4bd"/></linearGradient></defs><g transform="translate(1949 -9334)"><path d="M335.958,452.354a3.22,3.22,0,0,0,2.663,1.224l-.476.62.489.977s-3.05-.168-2.786-1.547S335.958,452.354,335.958,452.354Z" transform="translate(-2273.277 8892.522)" fill="url(#a)"/><rect width="8.153" height="2.197" transform="translate(-1945.617 9342.269)" fill="url(#b)"/><path d="M88.44,196.761a2.206,2.206,0,0,0-1.092-1.681,2.684,2.684,0,0,0-.995-.189,2.052,2.052,0,0,0-1.034-.847,2.4,2.4,0,0,0-1.787.159,4.308,4.308,0,0,0-.475-.444A3.484,3.484,0,0,0,81.12,193h0a1,1,0,0,0-.114,0c-.04,0-.079,0-.114,0v.008a3.5,3.5,0,0,0-1.937.759,3.572,3.572,0,0,0-.414.377,2.333,2.333,0,0,0-1.629-.1,2.015,2.015,0,0,0-1.035.851,2.686,2.686,0,0,0-1.153.18,2.217,2.217,0,0,0-1.092,1.681,4.616,4.616,0,0,0,.3,2.767c.291.662,1.153,1.333,2.712,2.109v3.216A4.258,4.258,0,0,0,81,209a4.357,4.357,0,0,0,4.12-2.8v-.26h.114v-.964h.114v-1.891h.013V202.1h0v-.432c1.593-.788,2.474-1.468,2.769-2.138A4.551,4.551,0,0,0,88.44,196.761Zm-3.508,4.734v.289h0v1.459H77.083v-1.748l0,0h7.853Z" transform="translate(-2022.532 9141)" fill="url(#c)"/><path d="M199.523,398.992c-.017-.038.035-.067.053-.063s.022,0,.031,0h0a.1.1,0,0,1,.035,0l.079-.013a1.077,1.077,0,0,1,.163-.017.113.113,0,0,1,.092.071c.009.038-.027.05-.053.05C199.814,399.017,199.589,399.131,199.523,398.992Z" transform="translate(-2142.965 8943.733)" fill="#1d1d1b"/><path d="M195.193,403.863c-.022-.042.035-.071.061-.067a.132.132,0,0,1,.04.008h0a.125.125,0,0,1,.039,0l.092-.013c.062-.008.409-.017.471-.013.035,0,.1.042.11.084s-.031.055-.062.055C195.814,403.9,195.277,404.018,195.193,403.863Z" transform="translate(-2138.825 8939.064)" fill="#1d1d1b"/><path d="M196.778,410.6c-.018-.088-.07-.063-.194-.063-.014,0-.088.008-.114.013.009-.055.017-.038.031-.092,0-.029-.017-.059-.053-.084a.3.3,0,0,0,.145-.046.28.28,0,0,0,.018-.449.487.487,0,0,0-.59-.063c-.027.021-.013.05.017.08a.243.243,0,0,0,0,.3.493.493,0,0,0,.207.147v.008c-.013.084-.031.092-.044.176a.089.089,0,0,0,0,.034c-.044,0-.092,0-.136,0s-.071.042-.04.084a.252.252,0,0,0,.184.076c.124,0,.247,0,.37-.008C196.651,410.7,196.8,410.7,196.778,410.6Zm-.4-.423a.148.148,0,0,1-.1.034v0a.153.153,0,0,1-.022-.063.194.194,0,0,1,.119-.2c.031-.013.035-.029.026-.05.009,0,.013,0,.013,0a.119.119,0,0,1,.026.046A.2.2,0,0,1,196.378,410.173Z" transform="translate(-2139.587 8933.35)" fill="#1d1d1b"/><path d="M215.8,400.458c.022-.382.092-1.2.1-1.262.009-.1.273-.008.268.076-.018.205-.031.415-.049.621h0s0,0,.009,0l.022-.017c.035-.046.11-.021.159,0a.282.282,0,0,1,.084.055c.009.008.031.042.018.059a.267.267,0,0,1-.3.05c-.013.176-.022.2-.035.377a.074.074,0,0,1,.035.076.121.121,0,0,1-.057.08C215.992,400.609,215.794,400.537,215.8,400.458Z" transform="translate(-2158.528 8943.492)" fill="#1d1d1b"/><path d="M231.738,404.722a.478.478,0,0,0-.48-.21h-.014s-.009,0-.013,0a.272.272,0,0,0-.163.344.442.442,0,0,0,.506.222A.235.235,0,0,0,231.738,404.722Zm-.361.214a.357.357,0,0,0-.035.008.33.33,0,0,0-.017-.038.254.254,0,0,1,0-.059.2.2,0,0,1,.123-.176h.018c.009.025.035.042.044.071A.163.163,0,0,1,231.378,404.936Z" transform="translate(-2173.113 8938.363)" fill="#1d1d1b"/><path d="M247.49,403.061c-.013-.092.255-.013.264.076a7.894,7.894,0,0,1,.066,1.115c0,.1-.268.008-.268-.076A7.957,7.957,0,0,0,247.49,403.061Z" transform="translate(-2188.825 8939.786)" fill="#1d1d1b"/><path d="M259.775,402.1c-.044-.038-.062-.08.018-.088a2.747,2.747,0,0,1,.643,0c.053,0,.149.042.167.1s-.035.067-.084.059a2.577,2.577,0,0,0-.475-.013v.025l-.04.113a.672.672,0,0,0,.339-.042c.08-.029.313.109.2.155a.894.894,0,0,1-.564.021v.008a.65.65,0,0,0,0,.092c.017,0,.031,0,.049,0,.189-.017.378-.029.568-.046.084-.008.3.147.145.159s-.344.029-.515.042a.635.635,0,0,1-.366-.034C259.643,402.534,259.7,402.287,259.775,402.1Z" transform="translate(-2200.505 8940.766)" fill="#1d1d1b"/><path d="M270.536,419.965c-.079-.2-.343-.26-.546-.264-.035,0-.053.017-.057.038a.185.185,0,0,0-.168.231.46.46,0,0,0,.453.289C270.39,420.258,270.615,420.162,270.536,419.965Zm-.387.126c-.207.046-.1-.222-.031-.205.031.008.1.021.119-.013a.082.082,0,0,1,.053.08C270.289,420.032,270.219,420.074,270.148,420.091Z" transform="translate(-2210.113 8923.804)" fill="#1d1d1b"/><path d="M283.8,400.961c-.009-.092.255-.013.268.075a3.523,3.523,0,0,1,.014.524c0,.1-.269.008-.264-.075A4.232,4.232,0,0,0,283.8,400.961Z" transform="translate(-2223.531 8941.798)" fill="#1d1d1b"/><g transform="translate(-1949 9334)"><path d="M277.835,458.1a.719.719,0,0,0-.735.7.675.675,0,0,0,.11.369h.207v-.034a.428.428,0,0,1,.854,0v.034h.194a.665.665,0,0,0,.11-.369A.726.726,0,0,0,277.835,458.1Z" transform="translate(-268.131 -446.985)" fill="#573724"/><path d="M224.8,502.2v.046a.725.725,0,1,0,1.417,0V502.2Z" transform="translate(-218.133 -489.236)" fill="#573724"/><path d="M173.435,458.1a.72.72,0,0,0-.735.7.676.676,0,0,0,.11.369H173v-.034a.427.427,0,0,1,.854,0v.034h.216a.665.665,0,0,0,.11-.369A.727.727,0,0,0,173.435,458.1Z" transform="translate(-168.326 -446.985)" fill="#573724"/><path d="M237.049,221.611l.035.78.04.78c.031.52.062,1.04.1,1.556a.02.02,0,0,0,.022.021.024.024,0,0,0,.026-.021c.04-.52.07-1.04.1-1.556l.04-.78.035-.78c.009-.26.031-.52.048-.78a6.519,6.519,0,0,0,0-.78c-.013-.26-.04-.52-.075-.78a5.4,5.4,0,0,0-.154-.78.033.033,0,0,0-.017-.017.025.025,0,0,0-.031.017,6.1,6.1,0,0,0-.154.78c-.035.26-.057.52-.075.78a6.564,6.564,0,0,0,0,.78C237.018,221.091,237.036,221.351,237.049,221.611Z" transform="translate(-229.783 -217.406)" fill="#573724"/><path d="M199.933,399.022c-.119-.008-.343.109-.409-.029-.017-.038.035-.067.053-.063s.022,0,.031,0h0a.1.1,0,0,1,.035,0l.079-.013a1.073,1.073,0,0,1,.163-.017.113.113,0,0,1,.092.071C200,399.014,199.959,399.026,199.933,399.022Z" transform="translate(-193.965 -390.267)" fill="#573724"/><path d="M195.95,403.909c-.136-.013-.673.109-.757-.046-.022-.042.035-.071.061-.067a.132.132,0,0,1,.04.008h0a.125.125,0,0,1,.039,0l.092-.013c.062-.008.409-.017.471-.013.035,0,.1.042.11.084S195.981,403.913,195.95,403.909Z" transform="translate(-189.825 -394.936)" fill="#573724"/><path d="M216.31,400.079a.267.267,0,0,1-.3.05c-.013.176-.022.2-.035.377a.074.074,0,0,1,.035.075.121.121,0,0,1-.057.08c-.057.042-.255-.029-.251-.1.022-.382.092-1.2.1-1.262.009-.1.273-.008.268.075-.017.205-.031.415-.048.621h0s0,0,.009,0l.022-.017c.035-.046.11-.021.158,0a.282.282,0,0,1,.084.055C216.3,400.029,216.324,400.063,216.31,400.079Z" transform="translate(-209.432 -390.604)" fill="#573724"/><path d="M196.778,410.6c-.018-.088-.07-.063-.194-.063-.014,0-.088.008-.114.013.009-.055.017-.038.031-.092,0-.029-.017-.059-.053-.084a.3.3,0,0,0,.145-.046.28.28,0,0,0,.018-.449.487.487,0,0,0-.59-.063c-.027.021-.013.05.017.08a.243.243,0,0,0,0,.3.493.493,0,0,0,.207.147v.008c-.013.084-.031.092-.044.176a.089.089,0,0,0,0,.034c-.044,0-.092,0-.136,0s-.071.042-.04.084a.252.252,0,0,0,.184.076c.124,0,.247,0,.37-.008C196.651,410.7,196.8,410.7,196.778,410.6Zm-.4-.423a.148.148,0,0,1-.1.034v0a.153.153,0,0,1-.022-.063.194.194,0,0,1,.119-.2c.031-.013.035-.029.026-.05.009,0,.013,0,.013,0a.119.119,0,0,1,.026.046A.2.2,0,0,1,196.378,410.173Z" transform="translate(-190.586 -400.651)" fill="#573724"/><path d="M231.738,404.722a.478.478,0,0,0-.48-.21h-.014s-.009,0-.013,0a.272.272,0,0,0-.163.344.442.442,0,0,0,.506.222A.235.235,0,0,0,231.738,404.722Zm-.361.214a.357.357,0,0,0-.035.008.33.33,0,0,0-.017-.038.254.254,0,0,1,0-.059.2.2,0,0,1,.123-.176h.018c.009.025.035.042.044.071A.163.163,0,0,1,231.378,404.936Z" transform="translate(-224.111 -395.636)" fill="#573724"/><path d="M247.825,404.252c0,.1-.268.008-.268-.076a8.594,8.594,0,0,0-.066-1.115c-.013-.092.255-.013.264.076A8.648,8.648,0,0,1,247.825,404.252Z" transform="translate(-239.824 -394.214)" fill="#573724"/><path d="M260.653,402.543c-.172.013-.343.029-.515.042a.634.634,0,0,1-.365-.034c-.22-.113-.159-.361-.088-.549-.044-.038-.062-.08.018-.088a2.742,2.742,0,0,1,.643,0c.053,0,.15.042.167.1s-.035.067-.083.059a2.576,2.576,0,0,0-.475-.013v.025l-.04.113a.673.673,0,0,0,.339-.042c.079-.029.312.109.2.155a.894.894,0,0,1-.563.021v.008a.658.658,0,0,0,0,.092c.018,0,.031,0,.048,0,.189-.017.379-.029.568-.046C260.592,402.375,260.812,402.53,260.653,402.543Z" transform="translate(-251.42 -393.138)" fill="#573724"/><path d="M284.074,401.56c0,.1-.268.008-.264-.075a3.457,3.457,0,0,0-.014-.524c-.009-.092.255-.013.269.076A4.159,4.159,0,0,1,284.074,401.56Z" transform="translate(-274.531 -392.202)" fill="#573724"/><path d="M270.536,419.965c-.079-.2-.343-.26-.546-.264-.035,0-.053.017-.057.038a.185.185,0,0,0-.168.231.46.46,0,0,0,.453.289C270.39,420.258,270.615,420.162,270.536,419.965Zm-.387.126c-.207.046-.1-.222-.031-.205.031.008.1.021.119-.013a.082.082,0,0,1,.053.08C270.289,420.032,270.219,420.074,270.148,420.091Z" transform="translate(-261.113 -410.195)" fill="#573724"/><path d="M87.7,204.9a3.021,3.021,0,0,1-2.131-.625,1.271,1.271,0,0,1-.4-.83v-1.333h0v-.432c1.594-.788,2.474-1.468,2.769-2.138a4.59,4.59,0,0,0,.3-2.767,2.206,2.206,0,0,0-1.092-1.681,2.683,2.683,0,0,0-.995-.189,2.051,2.051,0,0,0-1.034-.847,2.4,2.4,0,0,0-1.787.159,4.3,4.3,0,0,0-.475-.444,3.484,3.484,0,0,0-1.937-.759V193a1,1,0,0,0-.114,0c-.04,0-.079,0-.115,0v.008a3.5,3.5,0,0,0-1.937.759,3.549,3.549,0,0,0-.414.377,2.333,2.333,0,0,0-1.629-.1,2.014,2.014,0,0,0-1.034.851,2.686,2.686,0,0,0-1.153.18,2.217,2.217,0,0,0-1.092,1.681,4.617,4.617,0,0,0,.3,2.767c.29.662,1.153,1.333,2.712,2.109v3.216A4.258,4.258,0,0,0,80.8,209a4.34,4.34,0,0,0,4.173-2.96,4.763,4.763,0,0,0,2.685.813l.335.008-.572-1.128.678-.847h-.4Zm-.709-9.434a1.884,1.884,0,0,1,.832,1.379,4.162,4.162,0,0,1-.282,2.528,4.579,4.579,0,0,1-2.064,1.673,7.48,7.48,0,0,0,.356-.847c.048-.138.092-.273.132-.407l.026-.025s0,0,0-.008a.021.021,0,0,0-.013-.029,4.835,4.835,0,0,0,.044-2.667,3.649,3.649,0,0,0-.876-1.48,3.071,3.071,0,0,1,.647-.243A2.29,2.29,0,0,1,86.994,195.461Zm-2.016-1.027a1.584,1.584,0,0,1,.7.507,3.688,3.688,0,0,0-.85.335,5.51,5.51,0,0,0-1.171-.746A1.887,1.887,0,0,1,84.978,194.434Zm-8.1,0a1.8,1.8,0,0,1,1.189.046l0,0a5.661,5.661,0,0,0-1.233.767,4.124,4.124,0,0,0-.678-.281A1.631,1.631,0,0,1,76.879,194.434Zm-2.729,4.939a4.235,4.235,0,0,1-.282-2.528,1.879,1.879,0,0,1,.832-1.379,2.3,2.3,0,0,1,1.2-.126,3.058,3.058,0,0,1,.607.222,3.7,3.7,0,0,0-.9,1.5A5.07,5.07,0,0,0,75.8,200.2a8.229,8.229,0,0,0,.335.805A4.439,4.439,0,0,1,74.15,199.373Zm10.591,4.5s-.018,1.35-.057,1.606a3.943,3.943,0,0,1-7.792-.625v-1.224h7.845v.243Zm0-2.382v.289h0v1.459H76.892v-1.748l0,0h7.853Zm.229-.39H76.663a7.7,7.7,0,0,1-.467-1.073c.062.025.119.05.18.071a1.034,1.034,0,0,0,.154.038c.053.008.106.013.159.017.106,0,.216,0,.321,0s.211,0,.321,0,.211-.008.321-.017a5.288,5.288,0,0,0,.63-.088.019.019,0,0,0,.018-.017c0-.013-.009-.025-.018-.025h0c-.053-.008-.106-.013-.154-.021l-.079-.008-.079-.013c-.053-.008-.1-.013-.154-.021l-.154-.025-.075-.013-.075-.013-.15-.029c-.1-.021-.2-.038-.3-.059s-.2-.055-.295-.084a.928.928,0,0,0-.145-.038.908.908,0,0,0-.15-.017c-.053,0-.1,0-.154,0s-.106,0-.158,0c-.022,0-.048,0-.07,0a4.476,4.476,0,0,1-.07-2.474,1.785,1.785,0,0,0,.189.21,1.352,1.352,0,0,0,.123.1,1.418,1.418,0,0,0,.136.08c.1.046.194.088.291.134s.189.092.286.134.194.08.295.113a5.254,5.254,0,0,0,.608.176.033.033,0,0,0,.026-.008.02.02,0,0,0,0-.029h0c-.044-.029-.088-.054-.132-.08L77.772,198l-.066-.042c-.044-.029-.088-.055-.128-.084l-.128-.084-.062-.042-.062-.042-.123-.088c-.084-.059-.163-.117-.242-.176s-.154-.13-.229-.193a1.48,1.48,0,0,0-.247-.172,1.355,1.355,0,0,0-.136-.067,1.473,1.473,0,0,0-.145-.059c-.026-.008-.053-.021-.079-.029a3.826,3.826,0,0,1,1.844-1.908,1.206,1.206,0,0,0,.075.281.8.8,0,0,0,.066.138.843.843,0,0,0,.088.13c.066.084.132.159.2.243s.128.164.194.243.137.155.211.231a4.747,4.747,0,0,0,.462.419.03.03,0,0,0,.026,0c.013,0,.013-.021.009-.029h0c-.026-.042-.053-.088-.079-.13l-.04-.063-.04-.063c-.026-.042-.053-.084-.079-.13l-.075-.13-.035-.063-.035-.067-.07-.13c-.044-.088-.092-.176-.136-.264s-.079-.18-.114-.273a1.29,1.29,0,0,0-.062-.134,1,1,0,0,0-.079-.126,1.241,1.241,0,0,0-.092-.117c-.031-.038-.066-.075-.1-.113l.053-.025.057-.025.035-.05a3.247,3.247,0,0,1,2.425-1.342,3,3,0,0,1,1.761.662,3.152,3.152,0,0,1,.656.679l.035.05.057.025c.057.025.114.055.172.08l-.048.059c-.031.038-.062.08-.092.117a1.207,1.207,0,0,0-.079.126,1.291,1.291,0,0,0-.062.134c-.035.092-.07.184-.114.273s-.088.176-.136.264l-.07.13-.035.067-.04.05-.075.13c-.026.042-.053.084-.079.13l-.04.063-.04.063c-.026.042-.053.084-.079.13h0a.019.019,0,0,0,0,.025.023.023,0,0,0,.031,0,4.752,4.752,0,0,0,.462-.419c.075-.075.141-.151.211-.231s.132-.159.194-.243.132-.159.2-.243a1.4,1.4,0,0,0,.088-.13c.026-.046.044-.092.066-.138a1.46,1.46,0,0,0,.057-.2,3.715,3.715,0,0,1,1.712,1.878c-.026.013-.053.021-.079.034a1.357,1.357,0,0,0-.136.067,1.3,1.3,0,0,0-.128.08c-.04.029-.079.059-.119.092-.075.067-.15.134-.229.193s-.163.117-.242.176l-.123.088-.062.042-.062.042-.128.084a1.331,1.331,0,0,0-.128.084l-.066.042-.066.038c-.044.025-.088.055-.132.08h0a.018.018,0,0,0-.009.025c0,.013.018.021.026.017a5.014,5.014,0,0,0,.607-.176c.1-.034.2-.075.295-.113s.194-.084.286-.134.194-.088.291-.134a1.435,1.435,0,0,0,.136-.08,1.377,1.377,0,0,0,.123-.1.819.819,0,0,0,.062-.063,4.59,4.59,0,0,1-.11,2.314h-.066c-.053,0-.1,0-.154,0s-.1.008-.15.017a.932.932,0,0,0-.145.038c-.1.029-.194.063-.295.084s-.2.042-.3.059l-.15.029-.075.013-.075.013-.154.025c-.053.008-.1.013-.154.021l-.079.013-.079.008c-.053.008-.106.013-.154.021h0a.021.021,0,0,0,0,.042,5.279,5.279,0,0,0,.63.088c.106.008.211.013.321.017s.211,0,.321,0,.216,0,.321,0c.053,0,.106-.008.158-.017s.1-.021.145-.034A8.72,8.72,0,0,1,84.97,201.1Zm1.36,5.174a2.672,2.672,0,0,1-.894-.377.835.835,0,0,1-.317-.382,4.126,4.126,0,0,0,.057-.662v-.436a.837.837,0,0,0,.106.109,3.081,3.081,0,0,0,2.025.738l-.339.423.383.755A6.191,6.191,0,0,1,86.33,206.279Z" transform="translate(-73.341 -193)" fill="#573724"/></g></g></svg>