<svg xmlns="http://www.w3.org/2000/svg" width="126" height="126" viewBox="0 0 126 126"><g transform="translate(-45 -3710)"><circle cx="63" cy="63" r="63" transform="translate(45 3710)" fill="#feb47b"/><g transform="translate(69.533 3731.517)"><path d="M72.991,65.434l-.279.335C63.516,76.8,51.267,82.882,38.229,82.882S12.942,76.8,3.744,65.769l-.277-.335L3.532,65C5.308,53.421,11.36,44.115,20.573,38.8l.655-.378.522.547a22.719,22.719,0,0,0,32.953,0l.522-.547.655.378C65.093,44.115,71.145,53.421,72.923,65ZM38.229,41.392a20.7,20.7,0,1,0-20.695-20.7A20.719,20.719,0,0,0,38.229,41.392Z" transform="translate(0)" fill="#fff"/></g></g></svg>