<?xml version="1.0" encoding="utf-8"?>
<!-- Generator: Adobe Illustrator 23.0.3, SVG Export Plug-In . SVG Version: 6.00 Build 0)  -->
<svg version="1.1" id="Capa_1" xmlns="http://www.w3.org/2000/svg" xmlns:xlink="http://www.w3.org/1999/xlink" x="0px" y="0px"
	 viewBox="0 0 297 334" style="enable-background:new 0 0 297 334;" xml:space="preserve">
<style type="text/css">
	.st0{fill:#FFFFFF;}
	.st1{fill:url(#SVGID_1_);}
	.st2{fill:url(#SVGID_2_);}
	.st3{fill:url(#SVGID_3_);}
	.st4{fill:#1B1B19;}
	.st5{fill:#563623;}
</style>
<g>
	<path class="st0" d="M130.94,45.98c0.32,0,0.66,0.02,1,0.04c0.65-0.04,1.23-0.04,1.65-0.04l0.85,0.03
		c11.27,0.78,22.04,5.19,31.12,12.74l0.06,0.05c0.69,0.59,1.37,1.18,2.04,1.79c8.52-2.59,16.61-2.51,24.11,0.24
		c5.94,2.21,11.29,6.11,15.48,11.25c3.86,0.5,7.63,1.51,11.25,3.01c9.99,4.17,17.44,15.32,20.45,30.59
		c2.88,14.54,1.23,30.12-4.65,43.86c-0.33,0.78-0.73,1.63-1.16,2.46c-5.04,9.77-15.6,18.81-33.88,28.9v17.71
		c0.16,0.81,0.64,2.37,2.14,3.89c2.97,3,8.5,4.8,16.11,5.25H248l-15.91,20.87V229h-0.29l-1.6,2.09l12.14,25.12l-21.65-0.57
		c-2.1-0.04-16.79-0.48-29.56-5.96c-11.58,21.41-34.11,35.18-58.98,35.18h-0.11c-36.94,0-67-30.06-67-67V180.4
		c-19.23-10.69-29.91-20.36-34.33-30.94c-5.79-13.84-7.41-29.39-4.55-43.79c3.09-15.31,10.54-26.44,20.44-30.58
		c4.39-1.8,8.91-2.87,13.51-3.22c3.27-3.98,8.24-8.43,15.31-11c3.99-1.44,8.21-2.14,12.53-2.06c3.04,0.04,6.18,0.45,9.38,1.25
		c0.49-0.43,0.99-0.85,1.5-1.27c6.4-5.28,13.61-9.01,21.22-11.04C120.06,47.76,125.19,46.33,130.94,45.98z"/>
	<g>
		
			<linearGradient id="SVGID_1_" gradientUnits="userSpaceOnUse" x1="185.1381" y1="546.2464" x2="221.4692" y2="546.2464" gradientTransform="matrix(1 0 0 -1 0 770)">
			<stop  offset="5.809295e-04" style="stop-color:#3EA3C1"/>
			<stop  offset="0.0674" style="stop-color:#4FA7C3"/>
			<stop  offset="0.2455" style="stop-color:#7DB9CE"/>
			<stop  offset="0.4196" style="stop-color:#A8CFDD"/>
			<stop  offset="0.5858" style="stop-color:#CCE3EB"/>
			<stop  offset="0.7419" style="stop-color:#E7F2F6"/>
			<stop  offset="0.8842" style="stop-color:#FAFCFD"/>
			<stop  offset="1" style="stop-color:#FFFFFF"/>
		</linearGradient>
		<path class="st1" d="M186.77,204.57c0.17,0.51,12.15,17.52,34.52,16.66l-6.16,8.45l6.33,13.3c0,0-39.54-2.28-36.12-21.06
			C188.71,203.08,186.77,204.57,186.77,204.57z"/>
		<g>
			
				<linearGradient id="SVGID_2_" gradientUnits="userSpaceOnUse" x1="79.2106" y1="585.9772" x2="184.8917" y2="585.9772" gradientTransform="matrix(1 0 0 -1 0 770)">
				<stop  offset="6.470352e-03" style="stop-color:#3EA3C1"/>
				<stop  offset="8.470336e-03" style="stop-color:#40A4C2"/>
				<stop  offset="0.03" style="stop-color:#63AEC8"/>
				<stop  offset="0.0536" style="stop-color:#83BCD0"/>
				<stop  offset="0.0799" style="stop-color:#A1CBDA"/>
				<stop  offset="0.109" style="stop-color:#BDDAE5"/>
				<stop  offset="0.1418" style="stop-color:#D5E8EF"/>
				<stop  offset="0.1801" style="stop-color:#E7F2F6"/>
				<stop  offset="0.2275" style="stop-color:#F4F9FB"/>
				<stop  offset="0.294" style="stop-color:#FDFDFF"/>
				<stop  offset="0.4785" style="stop-color:#FFFFFF"/>
				<stop  offset="0.6822" style="stop-color:#FDFDFF"/>
				<stop  offset="0.7556" style="stop-color:#F4F9FB"/>
				<stop  offset="0.8079" style="stop-color:#E7F2F6"/>
				<stop  offset="0.8503" style="stop-color:#D5E8EF"/>
				<stop  offset="0.8865" style="stop-color:#BDDAE5"/>
				<stop  offset="0.9186" style="stop-color:#A1CBDA"/>
				<stop  offset="0.9476" style="stop-color:#83BCD0"/>
				<stop  offset="0.9737" style="stop-color:#63AEC8"/>
				<stop  offset="0.9975" style="stop-color:#40A4C2"/>
				<stop  offset="0.9997" style="stop-color:#3EA3C1"/>
			</linearGradient>
			<rect x="79.21" y="169.07" class="st2" width="105.68" height="29.9"/>
			
				<linearGradient id="SVGID_3_" gradientUnits="userSpaceOnUse" x1="132.6268" y1="713.4564" x2="132.6268" y2="495.7032" gradientTransform="matrix(1 0 0 -1 0 770)">
				<stop  offset="0" style="stop-color:#8AB136"/>
				<stop  offset="0.1028" style="stop-color:#91B536"/>
				<stop  offset="0.2942" style="stop-color:#A7C052"/>
				<stop  offset="0.5516" style="stop-color:#CCD884"/>
				<stop  offset="0.5757" style="stop-color:#D1DB8B"/>
				<stop  offset="0.6689" style="stop-color:#DAE197"/>
				<stop  offset="0.8751" style="stop-color:#EBEAB0"/>
				<stop  offset="1" style="stop-color:#F2EEB9"/>
			</linearGradient>
			<path class="st3" d="M228.6,107.73c-2.28-11.58-7.59-20.14-14.15-22.88c-4.11-1.71-8.45-2.57-12.9-2.57
				c-1.71-2.85-5.88-8.73-13.41-11.53c-6.85-2.51-14.67-1.77-23.17,2.17c-1.54-1.77-3.59-3.88-6.16-6.05
				c-7.42-6.16-16.09-9.7-25.11-10.33l0,0c-0.51,0-1.03,0-1.48,0.06c-0.51,0-1.03-0.06-1.48-0.06v0.11
				c-9.02,0.63-17.63,4.17-25.11,10.33c-2.17,1.77-3.94,3.54-5.36,5.14c-7.7-3.14-14.78-3.59-21.11-1.31
				c-7.53,2.74-11.76,8.73-13.41,11.58c-5.19-0.34-10.21,0.51-14.95,2.45c-6.56,2.74-11.81,11.3-14.15,22.88
				c-2.45,12.38-1.03,25.79,3.94,37.66c3.77,9.02,14.95,18.15,35.15,28.7v43.77c0,31.16,25.34,56.44,56.44,56.44
				c24.71,0,45.76-15.98,53.41-38.12v-3.54h1.48v-13.12h1.48v-25.74h0.17v-13.41l0,0v-5.88c20.66-10.73,32.07-19.97,35.89-29.1
				C229.69,133.52,231.06,120.11,228.6,107.73z M183.12,172.15v3.94l0,0v19.86H81.38v-19.52v-4.28l-0.06-0.06h101.8V172.15z"/>
			<path class="st4" d="M107.4,175.29c-0.23-0.51,0.46-0.91,0.68-0.86c0.11,0,0.29,0.06,0.4,0.06h0.06
				c0.17-0.06,0.29-0.06,0.46-0.06c0.34-0.06,0.68-0.11,1.03-0.17c0.68-0.11,1.43-0.23,2.11-0.23c0.4,0,1.08,0.46,1.2,0.97
				c0.11,0.51-0.34,0.68-0.68,0.68C111.17,175.63,108.26,177.18,107.4,175.29z"/>
			<path class="st4" d="M104.95,178.03c-0.29-0.57,0.46-0.97,0.8-0.91c0.17,0,0.34,0.06,0.51,0.11h0.06
				c0.17-0.06,0.34-0.06,0.51-0.06c0.4-0.06,0.8-0.11,1.2-0.17c0.8-0.11,5.31-0.23,6.11-0.17c0.46,0.06,1.31,0.57,1.43,1.14
				c0.17,0.57-0.4,0.74-0.8,0.74C112.99,178.49,106.03,180.14,104.95,178.03z"/>
			<path class="st4" d="M115.62,191.9c-0.23-1.2-0.91-0.86-2.51-0.86c-0.17,0-1.14,0.11-1.48,0.17c0.11-0.74,0.23-0.51,0.4-1.26
				c0.06-0.4-0.23-0.8-0.68-1.14c0.68-0.06,1.31-0.23,1.88-0.63c2.17-1.37,1.94-4.45,0.23-6.11c-1.94-1.88-5.42-2.62-7.65-0.86
				c-0.34,0.29-0.17,0.68,0.23,1.08c-0.86,1.14-0.97,2.74-0.06,4.05c0.63,0.86,1.6,1.54,2.68,2c0,0.06,0,0.06,0,0.11
				c-0.17,1.14-0.4,1.26-0.57,2.4c0,0.17,0,0.29,0.06,0.46c-0.57,0-1.2,0-1.77,0.06c-0.74,0-0.91,0.57-0.51,1.14
				c0.51,0.63,1.6,1.08,2.4,1.03c1.6-0.06,3.2-0.06,4.79-0.11C113.96,193.32,115.85,193.27,115.62,191.9z M110.42,186.13
				c-0.34,0.29-0.86,0.51-1.31,0.46c0,0,0,0,0-0.06c-0.17-0.23-0.23-0.57-0.29-0.86c-0.11-1.08,0.51-2.28,1.54-2.68
				c0.4-0.17,0.46-0.4,0.34-0.68c0.11,0,0.17,0.06,0.17,0c0.17,0.17,0.29,0.46,0.34,0.63C111.62,184.08,111.34,185.45,110.42,186.13
				z"/>
			<path class="st4" d="M116.64,191.95c0.29-5.19,1.2-16.38,1.26-17.18c0.11-1.37,3.54-0.11,3.48,1.03c-0.23,2.8-0.4,5.65-0.63,8.45
				c0,0,0,0,0.06,0s0.06,0,0.11-0.06c0.06-0.06,0.23-0.17,0.29-0.23c0.46-0.63,1.43-0.29,2.05-0.06c0.4,0.17,0.8,0.46,1.08,0.74
				c0.11,0.11,0.4,0.57,0.23,0.8c-0.91,1.2-2.57,1.2-3.94,0.68c-0.17,2.4-0.29,2.74-0.46,5.14c0.34,0.29,0.57,0.68,0.46,1.03
				c-0.11,0.51-0.34,0.8-0.74,1.08C119.15,194.01,116.59,193.04,116.64,191.95z"/>
			<path class="st4" d="M134.22,180.2c-1.2-2.05-3.88-3.37-6.22-2.85c-0.06,0-0.11,0-0.17,0l0,0l0,0l0,0l0,0
				c-0.06,0-0.11,0.06-0.17,0.06c-1.83,0.74-2.74,2.8-2.11,4.68c0.86,2.45,4.17,3.71,6.56,3.02
				C134.33,184.54,135.42,182.31,134.22,180.2z M129.54,183.11c-0.06,0-0.23,0.06-0.46,0.11c-0.06-0.17-0.17-0.4-0.23-0.51
				c-0.06-0.29-0.06-0.51-0.06-0.8c0.06-0.97,0.63-2.05,1.6-2.4l0,0l0,0c0.06,0,0.17,0,0.23,0c0.11,0.34,0.46,0.57,0.57,0.97
				C131.54,181.63,130.68,182.77,129.54,183.11z"/>
			<path class="st4" d="M134.73,176.95c-0.17-1.26,3.31-0.17,3.42,1.03c0.63,5.02,0.91,10.1,0.86,15.18c0,1.31-3.48,0.11-3.48-1.03
				C135.65,187.1,135.3,182.03,134.73,176.95z"/>
			<path class="st4" d="M142.55,177.23c-0.57-0.51-0.8-1.08,0.23-1.2c2.8-0.34,5.59-0.29,8.33,0.06c0.68,0.06,1.94,0.57,2.17,1.31
				c0.23,0.74-0.46,0.91-1.08,0.8c-2.05-0.29-4.11-0.29-6.16-0.17c0,0.11,0,0.23,0,0.34c-0.17,0.51-0.34,1.03-0.51,1.54
				c1.48,0.23,2.97,0,4.39-0.57c1.03-0.4,4.05,1.48,2.57,2.11c-2.34,0.97-4.91,0.97-7.3,0.29c0,0.06,0,0.11,0,0.11
				c-0.06,0.4,0,0.8,0,1.26c0.23,0,0.4-0.06,0.63-0.06c2.45-0.23,4.91-0.4,7.36-0.63c1.08-0.11,3.94,2,1.88,2.17
				c-2.23,0.17-4.45,0.4-6.68,0.57c-1.65,0.17-3.25,0.34-4.74-0.46C140.84,183.11,141.64,179.74,142.55,177.23z"/>
			<path class="st4" d="M157.5,189.5c-1.03-2.74-4.45-3.54-7.08-3.59c-0.46,0-0.68,0.23-0.74,0.51c-1.43,0.29-2.57,1.37-2.17,3.14
				c0.51,2.51,3.54,3.94,5.88,3.94C155.62,193.5,158.53,192.18,157.5,189.5z M152.48,191.21c-2.68,0.63-1.26-3.02-0.4-2.8
				c0.4,0.11,1.26,0.29,1.54-0.17c0.4,0.17,0.63,0.46,0.68,1.08C154.31,190.41,153.39,190.98,152.48,191.21z"/>
			<path class="st4" d="M155.45,175.75c-0.11-1.26,3.31-0.17,3.48,1.03c0.23,2.4,0.29,4.74,0.17,7.13
				c-0.06,1.37-3.48,0.11-3.42-1.03C155.73,180.48,155.68,178.15,155.45,175.75z"/>
			<g>
				<path class="st5" d="M161.15,207.82c-5.25,0-9.53,4.28-9.53,9.53c0,1.83,0.51,3.54,1.43,5.02h2.68c0-0.17,0-0.29,0-0.46
					c0-3.08,2.51-5.54,5.54-5.54c3.08,0,5.54,2.51,5.54,5.54c0,0.17,0,0.29,0,0.46h2.51c0.91-1.48,1.43-3.14,1.43-5.02
					C170.68,212.1,166.4,207.82,161.15,207.82z"/>
				<path class="st5" d="M121.78,232.98c0,0.23,0,0.4,0,0.63c0,6.56,4.11,11.93,9.19,11.93s9.19-5.31,9.19-11.93
					c0-0.23,0-0.4,0-0.63H121.78z"/>
				<path class="st5" d="M101.58,207.82c-5.25,0-9.53,4.28-9.53,9.53c0,1.83,0.51,3.54,1.43,5.02h2.45c0-0.17,0-0.29,0-0.46
					c0-3.08,2.51-5.54,5.54-5.54c3.08,0,5.54,2.51,5.54,5.54c0,0.17,0,0.29,0,0.46h2.8c0.91-1.48,1.43-3.14,1.43-5.02
					C111.17,212.1,106.89,207.82,101.58,207.82z"/>
				<path class="st5" d="M129.54,113.78l0.46,10.61l0.51,10.61c0.4,7.08,0.8,14.15,1.31,21.17c0,0.17,0.11,0.29,0.29,0.29
					c0.17,0,0.34-0.11,0.34-0.29c0.51-7.08,0.91-14.15,1.31-21.17l0.51-10.61l0.46-10.61c0.11-3.54,0.4-7.08,0.63-10.61
					s0.23-7.08,0.06-10.61c-0.17-3.54-0.51-7.08-0.97-10.61c-0.46-3.54-1.03-7.08-2-10.61c-0.06-0.11-0.11-0.17-0.23-0.23
					c-0.17-0.06-0.34,0.06-0.4,0.23c-0.97,3.54-1.48,7.08-2,10.61c-0.46,3.54-0.74,7.08-0.97,10.61c-0.17,3.54-0.17,7.08,0.06,10.61
					C129.14,106.7,129.37,110.24,129.54,113.78z"/>
				<path class="st5" d="M112.71,175.69c-1.54-0.11-4.45,1.48-5.31-0.4c-0.23-0.51,0.46-0.91,0.68-0.86c0.11,0,0.29,0.06,0.4,0.06
					h0.06c0.17-0.06,0.29-0.06,0.46-0.06c0.34-0.06,0.68-0.11,1.03-0.17c0.68-0.11,1.43-0.23,2.11-0.23c0.4,0,1.08,0.46,1.2,0.97
					C113.56,175.58,113.05,175.75,112.71,175.69z"/>
				<path class="st5" d="M114.76,178.66c-1.77-0.17-8.73,1.48-9.81-0.63c-0.29-0.57,0.46-0.97,0.8-0.91c0.17,0,0.34,0.06,0.51,0.11
					h0.06c0.17-0.06,0.34-0.06,0.51-0.06c0.4-0.06,0.8-0.11,1.2-0.17c0.8-0.11,5.31-0.23,6.11-0.17c0.46,0.06,1.31,0.57,1.43,1.14
					C115.73,178.54,115.16,178.72,114.76,178.66z"/>
				<path class="st5" d="M124.52,185.51c-0.91,1.2-2.57,1.2-3.94,0.68c-0.17,2.4-0.29,2.74-0.46,5.14c0.34,0.29,0.57,0.68,0.46,1.03
					c-0.11,0.51-0.34,0.8-0.74,1.08c-0.74,0.57-3.31-0.4-3.25-1.43c0.29-5.19,1.2-16.38,1.26-17.18c0.11-1.37,3.54-0.11,3.48,1.03
					c-0.23,2.8-0.4,5.65-0.63,8.45c0,0,0,0,0.06,0s0.06,0,0.11-0.06c0.06-0.06,0.23-0.17,0.29-0.23c0.46-0.63,1.43-0.29,2.05-0.06
					c0.4,0.17,0.8,0.46,1.08,0.74C124.4,184.82,124.69,185.28,124.52,185.51z"/>
				<path class="st5" d="M115.62,191.9c-0.23-1.2-0.91-0.86-2.51-0.86c-0.17,0-1.14,0.11-1.48,0.17c0.11-0.74,0.23-0.51,0.4-1.26
					c0.06-0.4-0.23-0.8-0.68-1.14c0.68-0.06,1.31-0.23,1.88-0.63c2.17-1.37,1.94-4.45,0.23-6.11c-1.94-1.88-5.42-2.62-7.65-0.86
					c-0.34,0.29-0.17,0.68,0.23,1.08c-0.86,1.14-0.97,2.74-0.06,4.05c0.63,0.86,1.6,1.54,2.68,2c0,0.06,0,0.06,0,0.11
					c-0.17,1.14-0.4,1.26-0.57,2.4c0,0.17,0,0.29,0.06,0.46c-0.57,0-1.2,0-1.77,0.06c-0.74,0-0.91,0.57-0.51,1.14
					c0.51,0.63,1.6,1.08,2.4,1.03c1.6-0.06,3.2-0.06,4.79-0.11C113.96,193.32,115.85,193.27,115.62,191.9z M110.42,186.13
					c-0.34,0.29-0.86,0.51-1.31,0.46c0,0,0,0,0-0.06c-0.17-0.23-0.23-0.57-0.29-0.86c-0.11-1.08,0.51-2.28,1.54-2.68
					c0.4-0.17,0.46-0.4,0.34-0.68c0.11,0,0.17,0.06,0.17,0c0.17,0.17,0.29,0.46,0.34,0.63
					C111.62,184.08,111.34,185.45,110.42,186.13z"/>
				<path class="st5" d="M134.22,180.2c-1.2-2.05-3.88-3.37-6.22-2.85c-0.06,0-0.11,0-0.17,0l0,0l0,0l0,0l0,0
					c-0.06,0-0.11,0.06-0.17,0.06c-1.83,0.74-2.74,2.8-2.11,4.68c0.86,2.45,4.17,3.71,6.56,3.02
					C134.33,184.54,135.42,182.31,134.22,180.2z M129.54,183.11c-0.06,0-0.23,0.06-0.46,0.11c-0.06-0.17-0.17-0.4-0.23-0.51
					c-0.06-0.29-0.06-0.51-0.06-0.8c0.06-0.97,0.63-2.05,1.6-2.4l0,0l0,0c0.06,0,0.17,0,0.23,0c0.11,0.34,0.46,0.57,0.57,0.97
					C131.54,181.63,130.68,182.77,129.54,183.11z"/>
				<path class="st5" d="M139.07,193.15c0,1.31-3.48,0.11-3.48-1.03c0.06-5.08-0.29-10.16-0.86-15.18
					c-0.17-1.26,3.31-0.17,3.42,1.03C138.78,183.05,139.07,188.07,139.07,193.15z"/>
				<path class="st5" d="M155.05,184.54c-2.23,0.17-4.45,0.4-6.68,0.57c-1.65,0.17-3.25,0.34-4.74-0.46
					c-2.85-1.54-2.05-4.91-1.14-7.48c-0.57-0.51-0.8-1.08,0.23-1.2c2.8-0.34,5.59-0.29,8.33,0.06c0.68,0.06,1.94,0.57,2.17,1.31
					c0.23,0.74-0.46,0.91-1.08,0.8c-2.05-0.29-4.11-0.29-6.16-0.17c0,0.11,0,0.23,0,0.34c-0.17,0.51-0.34,1.03-0.51,1.54
					c1.48,0.23,2.97,0,4.39-0.57c1.03-0.4,4.05,1.48,2.57,2.11c-2.34,0.97-4.91,0.97-7.3,0.29c0,0.06,0,0.11,0,0.11
					c-0.06,0.4,0,0.8,0,1.26c0.23,0,0.4-0.06,0.63-0.06c2.45-0.23,4.91-0.4,7.36-0.63C154.25,182.25,157.1,184.37,155.05,184.54z"/>
				<path class="st5" d="M159.04,183.91c-0.06,1.37-3.48,0.11-3.42-1.03c0.11-2.4,0.06-4.74-0.17-7.13
					c-0.11-1.26,3.31-0.17,3.48,1.03C159.1,179.12,159.16,181.51,159.04,183.91z"/>
				<path class="st5" d="M157.5,189.5c-1.03-2.74-4.45-3.54-7.08-3.59c-0.46,0-0.68,0.23-0.74,0.51c-1.43,0.29-2.57,1.37-2.17,3.14
					c0.51,2.51,3.54,3.94,5.88,3.94C155.62,193.5,158.53,192.18,157.5,189.5z M152.48,191.21c-2.68,0.63-1.26-3.02-0.4-2.8
					c0.4,0.11,1.26,0.29,1.54-0.17c0.4,0.17,0.63,0.46,0.68,1.08C154.31,190.41,153.39,190.98,152.48,191.21z"/>
				<path class="st5" d="M221.53,218.43c-12.73,0-22.03-2.85-27.62-8.5c-4.79-4.85-5.19-10.21-5.25-11.3v-18.15l0,0v-5.88
					c20.66-10.73,32.07-19.97,35.89-29.1c5.02-11.93,6.39-25.34,3.94-37.66c-2.28-11.58-7.59-20.14-14.15-22.88
					c-4.11-1.71-8.45-2.57-12.9-2.57c-1.71-2.85-5.88-8.73-13.41-11.53c-6.85-2.51-14.67-1.77-23.17,2.17
					c-1.54-1.77-3.59-3.88-6.16-6.05c-7.42-6.16-16.09-9.7-25.11-10.33v-0.11c-0.51,0-1.03,0-1.48,0.06c-0.51,0-1.03-0.06-1.48-0.06
					v0.11c-9.02,0.63-17.63,4.17-25.11,10.33c-2.17,1.77-3.94,3.54-5.36,5.14c-7.7-3.14-14.78-3.59-21.11-1.31
					c-7.53,2.74-11.76,8.73-13.41,11.58c-5.19-0.34-10.21,0.51-14.95,2.45c-6.56,2.74-11.81,11.3-14.15,22.88
					c-2.45,12.38-1.03,25.79,3.94,37.66c3.77,9.02,14.95,18.15,35.15,28.7v43.77c0,31.16,25.34,56.44,56.44,56.44
					c25.51,0,47.13-17,54.1-40.29c9.81,10.33,33.55,11.07,34.81,11.07l4.34,0.11l-7.42-15.35l8.79-11.53h-5.14V218.43z
					 M212.34,90.04c4.68,2,8.96,9.36,10.78,18.77c1.31,6.56,2.57,19.74-3.65,34.41c-2.85,6.79-11.64,14.27-26.76,22.77
					c1.48-3.14,3.14-7.08,4.62-11.53c0.63-1.88,1.2-3.71,1.71-5.54c0.11-0.11,0.23-0.23,0.34-0.34c0.06-0.06,0.06-0.06,0.06-0.11
					c0.06-0.17,0-0.34-0.17-0.4c3.42-13.18,3.65-25.62,0.57-36.29c-2.17-7.53-5.99-14.27-11.36-20.14c4.45-2.34,7.93-3.2,8.39-3.31
					C202.3,87.47,207.49,88.04,212.34,90.04z M186.2,76.06c4.28,1.54,7.25,4.57,9.07,6.9c-1.37,0.34-5.76,1.6-11.01,4.57
					c-4.28-3.82-9.36-7.19-15.18-10.16C175.48,74.69,181.24,74.29,186.2,76.06z M81.21,76.06c4.51-1.65,9.7-1.43,15.41,0.63
					l-0.06,0.06c-6.16,3.02-11.47,6.51-15.98,10.44c-3.65-2-6.85-3.2-8.79-3.82C73.5,81.08,76.59,77.77,81.21,76.06z M45.83,143.28
					c-6.16-14.72-4.91-27.9-3.65-34.41c1.88-9.47,6.11-16.83,10.78-18.77c4.79-2,10.04-2.57,15.52-1.71
					c0.46,0.11,3.71,0.91,7.87,3.02c-5.48,5.93-9.42,12.78-11.64,20.43c-3.59,12.38-2.74,27.16,2.45,42.68
					c1.43,4.17,2.91,7.87,4.34,10.96C57.07,157.2,48.62,149.96,45.83,143.28z M183.12,204.57c0,0-0.23,18.37-0.74,21.86
					c-4.05,24.02-24.99,42.34-50.16,42.34c-28.02,0-50.84-22.83-50.84-50.84v-16.66h101.69v3.31H183.12z M183.12,172.15v3.94l0,0
					v19.86H81.38v-19.52v-4.28l-0.06-0.06h101.8V172.15z M186.09,166.85c-0.06,0-0.11,0-0.17,0H78.58c-0.06,0-0.11,0-0.17,0
					c-1.71-3.42-4.05-8.5-6.05-14.61c0.8,0.34,1.54,0.68,2.34,0.97c0.68,0.23,1.31,0.4,2,0.51c0.68,0.11,1.37,0.17,2.05,0.23
					c1.37,0,2.8,0,4.17,0.06c1.37,0.06,2.74,0.06,4.17,0.06c1.37-0.06,2.74-0.11,4.17-0.23c2.74-0.23,5.48-0.63,8.16-1.2
					c0.11,0,0.23-0.11,0.23-0.23c0-0.17-0.11-0.34-0.23-0.34l0,0c-0.68-0.11-1.37-0.17-2-0.29l-1.03-0.11l-1.03-0.17
					c-0.68-0.11-1.31-0.17-2-0.29l-2-0.34l-0.97-0.17l-0.97-0.17l-1.94-0.4c-1.31-0.29-2.62-0.51-3.88-0.8
					c-1.31-0.29-2.57-0.74-3.82-1.14c-0.63-0.23-1.26-0.4-1.88-0.51c-0.63-0.11-1.31-0.23-1.94-0.23c-0.68-0.06-1.31-0.06-2-0.06
					c-0.68,0-1.37,0-2.05,0.06c-0.29,0-0.63,0.06-0.91,0.06c-2.74-10.1-4.17-22.14-0.91-33.67c0.74,1.03,1.6,2,2.45,2.85
					c0.51,0.46,1.03,0.91,1.6,1.31c0.57,0.4,1.14,0.74,1.77,1.08c1.26,0.63,2.51,1.2,3.77,1.83c1.2,0.63,2.45,1.26,3.71,1.83
					c1.26,0.51,2.51,1.08,3.82,1.54c2.57,0.97,5.25,1.77,7.87,2.4c0.11,0,0.23,0,0.34-0.11c0.11-0.11,0.06-0.34-0.06-0.4l0,0
					c-0.57-0.4-1.14-0.74-1.71-1.08l-0.86-0.51l-0.86-0.57c-0.57-0.4-1.14-0.74-1.65-1.14l-1.65-1.14l-0.8-0.57l-0.8-0.57l-1.6-1.2
					c-1.08-0.8-2.11-1.6-3.14-2.4c-1.03-0.8-2-1.77-2.97-2.62c-0.51-0.46-0.97-0.86-1.54-1.26c-0.51-0.4-1.08-0.74-1.65-1.08
					s-1.14-0.63-1.77-0.91c-0.63-0.29-1.2-0.57-1.88-0.8c-0.34-0.11-0.68-0.29-1.03-0.4c4.11-10.61,12.1-19.34,23.91-25.96
					c0.17,1.31,0.51,2.62,0.97,3.82c0.23,0.63,0.51,1.31,0.86,1.88c0.34,0.63,0.68,1.2,1.14,1.77c0.86,1.14,1.71,2.17,2.57,3.31
					c0.8,1.14,1.65,2.23,2.51,3.31c0.91,1.03,1.77,2.11,2.74,3.14c1.88,2.05,3.88,3.94,5.99,5.71c0.11,0.06,0.23,0.11,0.34,0.06
					c0.17-0.06,0.17-0.29,0.11-0.4l0,0c-0.34-0.57-0.68-1.2-1.03-1.77l-0.51-0.86l-0.51-0.86c-0.34-0.57-0.68-1.14-1.03-1.77
					l-0.97-1.77l-0.46-0.86l-0.46-0.91l-0.91-1.77c-0.57-1.2-1.2-2.4-1.77-3.59s-1.03-2.45-1.48-3.71c-0.23-0.63-0.51-1.26-0.8-1.83
					s-0.63-1.14-1.03-1.71c-0.4-0.57-0.74-1.08-1.2-1.6c-0.4-0.51-0.86-1.03-1.31-1.54c0.23-0.11,0.46-0.23,0.68-0.34l0.74-0.34
					l0.46-0.68c0.11-0.17,11.07-17.46,31.44-18.26c8.27,0.34,15.98,3.37,22.83,9.02c5.59,4.57,8.5,9.24,8.5,9.24l0.46,0.68
					l0.74,0.34c0.74,0.34,1.48,0.74,2.23,1.08c-0.23,0.29-0.4,0.51-0.63,0.8c-0.4,0.51-0.8,1.08-1.2,1.6
					c-0.4,0.57-0.68,1.08-1.03,1.71c-0.29,0.57-0.57,1.2-0.8,1.83c-0.46,1.26-0.91,2.51-1.48,3.71c-0.57,1.2-1.14,2.4-1.77,3.59
					l-0.91,1.77l-0.46,0.91l-0.51,0.68l-0.97,1.77c-0.34,0.57-0.68,1.14-1.03,1.77l-0.51,0.86l-0.51,0.86
					c-0.34,0.57-0.68,1.14-1.03,1.77l0,0c-0.06,0.11-0.06,0.23,0.06,0.34s0.29,0.17,0.4,0.06c2.11-1.77,4.11-3.65,5.99-5.71
					c0.97-1.03,1.83-2.05,2.74-3.14c0.86-1.08,1.71-2.17,2.51-3.31c0.8-1.14,1.71-2.17,2.57-3.31c0.4-0.57,0.8-1.14,1.14-1.77
					c0.34-0.63,0.57-1.26,0.86-1.88c0.29-0.86,0.57-1.77,0.74-2.68c10.96,6.62,18.43,15.18,22.2,25.56
					c-0.34,0.17-0.68,0.29-1.03,0.46c-0.63,0.29-1.2,0.57-1.77,0.91c-0.57,0.34-1.14,0.68-1.65,1.08c-0.51,0.4-1.03,0.8-1.54,1.26
					c-0.97,0.91-1.94,1.83-2.97,2.62c-1.03,0.8-2.11,1.6-3.14,2.4l-1.6,1.2l-0.8,0.57l-0.8,0.57l-1.65,1.14
					c-0.57,0.34-1.14,0.74-1.65,1.14l-0.86,0.57l-0.86,0.51c-0.57,0.34-1.14,0.74-1.71,1.08l0,0c-0.11,0.06-0.17,0.17-0.11,0.34
					c0.06,0.17,0.23,0.29,0.34,0.23c2.68-0.63,5.31-1.43,7.87-2.4c1.31-0.46,2.57-1.03,3.82-1.54c1.26-0.57,2.51-1.14,3.71-1.83
					c1.26-0.63,2.51-1.2,3.77-1.83c0.63-0.34,1.2-0.68,1.77-1.08c0.57-0.4,1.08-0.86,1.6-1.31c0.29-0.29,0.57-0.57,0.8-0.86
					c2.51,10.84,1.14,22.03-1.43,31.5c-0.29,0-0.57,0-0.86,0c-0.68,0-1.31,0.06-2,0.06c-0.68,0.06-1.31,0.11-1.94,0.23
					c-0.63,0.11-1.26,0.29-1.88,0.51c-1.26,0.4-2.51,0.86-3.82,1.14c-1.31,0.29-2.57,0.57-3.88,0.8l-1.94,0.4l-0.97,0.17l-0.97,0.17
					l-2,0.34c-0.68,0.11-1.31,0.17-2,0.29l-1.03,0.17l-1.03,0.11c-0.68,0.11-1.37,0.17-2,0.29l0,0c-0.11,0-0.23,0.11-0.23,0.23
					c-0.06,0.17,0.06,0.34,0.23,0.34c2.68,0.57,5.42,0.97,8.16,1.2c1.37,0.11,2.74,0.17,4.17,0.23c1.37,0,2.74,0,4.17-0.06
					c1.37-0.06,2.8,0,4.17-0.06c0.68-0.06,1.37-0.11,2.05-0.23c0.63-0.11,1.26-0.29,1.88-0.46
					C189.91,158.86,187.74,163.59,186.09,166.85z M203.72,237.26c-4.96-1.31-8.84-3.08-11.58-5.14c-2.05-1.54-3.42-3.25-4.11-5.19
					c0.46-2.97,0.74-5.93,0.74-9.02v-5.93c0.4,0.51,0.86,1.03,1.37,1.48c5.76,5.93,14.61,9.3,26.25,10.04l-4.39,5.76l4.96,10.27
					C213.48,239.26,208.57,238.58,203.72,237.26z"/>
			</g>
		</g>
	</g>
</g>
</svg>
