<svg xmlns="http://www.w3.org/2000/svg" xmlns:xlink="http://www.w3.org/1999/xlink" width="185.186" height="198.178" viewBox="0 0 185.186 198.178"><defs><linearGradient id="a" y1="0.5" x2="1" y2="0.5" gradientUnits="objectBoundingBox"><stop offset="0.001" stop-color="#36bbdd"/><stop offset="0.067" stop-color="#4cc3e1"/><stop offset="0.245" stop-color="#82d5ea"/><stop offset="0.42" stop-color="#afe4f1"/><stop offset="0.586" stop-color="#d2f0f7"/><stop offset="0.742" stop-color="#ebf8fc"/><stop offset="0.884" stop-color="#fafdfe"/><stop offset="1" stop-color="#fff"/></linearGradient><linearGradient id="b" y1="0.5" x2="1" y2="0.5" gradientUnits="objectBoundingBox"><stop offset="0.006" stop-color="#36bbdd"/><stop offset="0.008" stop-color="#3abcde"/><stop offset="0.03" stop-color="#63cae5"/><stop offset="0.054" stop-color="#88d7eb"/><stop offset="0.08" stop-color="#a8e2f0"/><stop offset="0.109" stop-color="#c4ebf5"/><stop offset="0.142" stop-color="#daf2f9"/><stop offset="0.18" stop-color="#ebf8fc"/><stop offset="0.228" stop-color="#f6fcfe"/><stop offset="0.294" stop-color="#fdfeff"/><stop offset="0.479" stop-color="#fff"/><stop offset="0.682" stop-color="#fdfeff"/><stop offset="0.756" stop-color="#f6fcfe"/><stop offset="0.808" stop-color="#ebf8fc"/><stop offset="0.85" stop-color="#daf2f9"/><stop offset="0.887" stop-color="#c4ebf5"/><stop offset="0.919" stop-color="#a8e2f0"/><stop offset="0.948" stop-color="#88d7eb"/><stop offset="0.974" stop-color="#63cae5"/><stop offset="0.998" stop-color="#3abcde"/><stop offset="1" stop-color="#36bbdd"/></linearGradient><linearGradient id="c" x1="0.5" x2="0.5" y2="1" gradientUnits="objectBoundingBox"><stop offset="0" stop-color="#93c01f"/><stop offset="0.103" stop-color="#9bc42c"/><stop offset="0.294" stop-color="#b2d04f"/><stop offset="0.552" stop-color="#d5e287"/><stop offset="0.576" stop-color="#d9e48d"/><stop offset="0.669" stop-color="#e2e99b"/><stop offset="0.875" stop-color="#f2f1b4"/><stop offset="1" stop-color="#f8f4bd"/></linearGradient></defs><g transform="translate(2960 -5723)"><path d="M112.852,45.98c.265,0,.548.017.83.033.539-.033,1.02-.033,1.369-.033l.705.025a45.17,45.17,0,0,1,25.818,10.569l.05.041c.572.489,1.137.979,1.692,1.485a30.857,30.857,0,0,1,20,.2,30.317,30.317,0,0,1,12.842,9.333,36.642,36.642,0,0,1,9.333,2.5c8.288,3.459,14.468,12.71,16.966,25.378a62.53,62.53,0,0,1-3.858,36.387c-.274.647-.606,1.352-.962,2.041-4.181,8.105-12.942,15.605-28.107,23.976V172.6a6.394,6.394,0,0,0,1.775,3.227c2.464,2.489,7.052,3.982,13.365,4.355h25.295l-13.2,17.314v.315h-.241l-1.327,1.734,10.072,20.84-17.961-.473c-1.742-.033-13.929-.4-24.523-4.945a55.682,55.682,0,0,1-48.931,29.186h-.091A55.651,55.651,0,0,1,58.18,188.574V157.5c-15.953-8.869-24.814-16.891-28.481-25.668A63.228,63.228,0,0,1,25.925,95.5c2.564-12.7,8.744-21.935,16.957-25.37A36.78,36.78,0,0,1,54.09,67.459a29.524,29.524,0,0,1,12.7-9.126,28.946,28.946,0,0,1,10.4-1.709,33.919,33.919,0,0,1,7.782,1.037c.407-.357.821-.705,1.244-1.054a46.5,46.5,0,0,1,17.6-9.159A50.634,50.634,0,0,1,112.852,45.98Z" transform="translate(-2984.781 5677.02)" fill="#fff"/><g transform="translate(-999 -3599)"><path d="M337.147,452.374a33.126,33.126,0,0,0,27.745,13.391l-4.953,6.787,5.09,10.685S333.249,481.4,336,466.315C338.706,451.182,337.147,452.374,337.147,452.374Z" transform="translate(-2164.455 9000.586)" fill="url(#a)"/><rect width="84.932" height="24.03" transform="translate(-1913.753 9424.436)" fill="url(#b)"/><path d="M228.757,234.136c-1.834-9.31-6.1-16.188-11.373-18.39a26.8,26.8,0,0,0-10.364-2.064,21.7,21.7,0,0,0-10.777-9.264c-5.5-2.018-11.786-1.422-18.619,1.743a45.693,45.693,0,0,0-4.953-4.861,35.332,35.332,0,0,0-20.178-8.3h0a9.973,9.973,0,0,0-1.192.046c-.413,0-.825-.046-1.192-.046v.092a35.458,35.458,0,0,0-20.178,8.3,37.837,37.837,0,0,0-4.311,4.127c-6.191-2.522-11.878-2.889-16.968-1.055a21.312,21.312,0,0,0-10.777,9.309,26.783,26.783,0,0,0-12.015,1.972c-5.274,2.2-9.493,9.08-11.373,18.39A52.808,52.808,0,0,0,77.65,264.4c3.027,7.246,12.015,14.583,28.25,23.067v35.174a45.37,45.37,0,0,0,88.28,14.721v-2.843h1.192V323.975h1.192V303.292h.138V292.515h0v-4.724c16.6-8.622,25.773-16.051,28.846-23.388A52.066,52.066,0,0,0,228.757,234.136Zm-36.55,51.775v3.164h0v15.959H110.439V285.912l-.046-.046h81.813Z" transform="translate(-2022.45 9141)" fill="url(#c)"/><path d="M199.556,399.909c-.183-.413.367-.734.55-.688.092,0,.229.046.321.046h.046a1.01,1.01,0,0,1,.367-.046l.825-.138a10.666,10.666,0,0,1,1.7-.183,1.185,1.185,0,0,1,.963.78c.092.413-.275.55-.55.55C202.583,400.184,200.244,401.422,199.556,399.909Z" transform="translate(-2090.655 9029.524)" fill="#1d1d1b"/><path d="M195.239,404.749c-.229-.459.367-.78.642-.734a1.338,1.338,0,0,1,.413.092h.046a1.269,1.269,0,0,1,.413-.046l.963-.138c.642-.092,4.265-.183,4.907-.138a1.546,1.546,0,0,1,1.147.917c.138.459-.321.6-.642.6C201.706,405.116,196.111,406.445,195.239,404.749Z" transform="translate(-2088.31 9026.887)" fill="#1d1d1b"/><path d="M204.246,419.122c-.183-.963-.734-.688-2.018-.688-.138,0-.917.092-1.192.138.092-.6.183-.413.321-1.009a1.068,1.068,0,0,0-.55-.917,2.979,2.979,0,0,0,1.513-.5c1.743-1.1,1.559-3.577.183-4.907-1.559-1.513-4.357-2.11-6.145-.688-.275.229-.138.55.183.871a2.749,2.749,0,0,0-.046,3.256,5.136,5.136,0,0,0,2.155,1.605v.092c-.138.917-.321,1.009-.459,1.926a1.009,1.009,0,0,0,.046.367c-.459,0-.963,0-1.422.046-.6,0-.734.459-.413.917a2.567,2.567,0,0,0,1.926.825c1.284-.046,2.568-.046,3.852-.092C202.917,420.268,204.43,420.223,204.246,419.122Zm-4.173-4.632a1.488,1.488,0,0,1-1.055.367v-.046a1.746,1.746,0,0,1-.229-.688,2.126,2.126,0,0,1,1.238-2.155c.321-.138.367-.321.275-.55.092,0,.138.046.138,0a1.378,1.378,0,0,1,.275.5A2.307,2.307,0,0,1,200.073,414.49Z" transform="translate(-2088.741 9023.657)" fill="#1d1d1b"/><path d="M215.8,413.436c.229-4.173.963-13.162,1.009-13.8.092-1.1,2.843-.092,2.8.825-.183,2.247-.321,4.54-.5,6.787h.046c.046,0,.046,0,.092-.046s.183-.138.229-.183c.367-.5,1.147-.229,1.651-.046a2.937,2.937,0,0,1,.871.6c.092.092.321.459.183.642a2.689,2.689,0,0,1-3.164.55c-.138,1.926-.229,2.2-.367,4.127a.83.83,0,0,1,.367.825,1.323,1.323,0,0,1-.6.871C217.817,415.087,215.753,414.307,215.8,413.436Z" transform="translate(-2099.468 9029.389)" fill="#1d1d1b"/><path d="M238.183,406.887a4.888,4.888,0,0,0-5-2.293h-.138c-.046,0-.092.046-.138.046a3.017,3.017,0,0,0-1.7,3.76c.688,1.972,3.348,2.981,5.274,2.431A2.6,2.6,0,0,0,238.183,406.887Zm-3.76,2.339c-.046,0-.183.046-.367.092a3.643,3.643,0,0,0-.183-.413,3.027,3.027,0,0,1-.046-.642,2.173,2.173,0,0,1,1.284-1.926h.183c.092.275.367.459.459.78A1.787,1.787,0,0,1,234.423,409.226Z" transform="translate(-2107.728 9026.49)" fill="#1d1d1b"/><path d="M247.494,403.469c-.138-1.009,2.66-.138,2.752.825a90.248,90.248,0,0,1,.688,12.2c0,1.055-2.8.092-2.8-.826A91.012,91.012,0,0,0,247.494,403.469Z" transform="translate(-2116.626 9027.294)" fill="#1d1d1b"/><path d="M260.393,403.145c-.459-.413-.642-.871.183-.963a27.246,27.246,0,0,1,6.7.046c.55.046,1.559.459,1.743,1.055s-.367.734-.871.642a25.559,25.559,0,0,0-4.953-.138v.275l-.413,1.238a6.7,6.7,0,0,0,3.531-.459c.825-.321,3.256,1.192,2.064,1.7a8.894,8.894,0,0,1-5.87.229v.092a7.4,7.4,0,0,0,0,1.009c.183,0,.321-.046.5-.046,1.972-.183,3.944-.321,5.916-.5.871-.092,3.164,1.605,1.513,1.743-1.789.138-3.577.321-5.366.459a6.323,6.323,0,0,1-3.806-.367C259.017,407.868,259.659,405.163,260.393,403.145Z" transform="translate(-2123.241 9027.848)" fill="#1d1d1b"/><path d="M277.849,422.589c-.825-2.2-3.577-2.843-5.687-2.889a.535.535,0,0,0-.6.413,2.014,2.014,0,0,0-1.743,2.522c.413,2.018,2.843,3.164,4.724,3.164C276.336,425.8,278.674,424.745,277.849,422.589Zm-4.036,1.376c-2.155.5-1.009-2.431-.321-2.247.321.092,1.009.229,1.238-.138a.9.9,0,0,1,.55.871C275.281,423.323,274.547,423.782,273.813,423.965Z" transform="translate(-2128.683 9018.263)" fill="#1d1d1b"/><path d="M283.8,401.369c-.092-1.009,2.66-.138,2.8.825a39.892,39.892,0,0,1,.138,5.732c-.046,1.1-2.8.092-2.752-.825A47.891,47.891,0,0,0,283.8,401.369Z" transform="translate(-2136.282 9028.432)" fill="#1d1d1b"/><g transform="translate(-1949 9334)"><path d="M284.759,458.1a7.662,7.662,0,0,0-6.512,11.694H280.4v-.367a4.448,4.448,0,1,1,8.9,0v.367h2.018a7.54,7.54,0,0,0,1.146-4.036A7.742,7.742,0,0,0,284.759,458.1Z" transform="translate(-183.657 -336.526)" fill="#573724"/><path d="M224.8,502.2v.5c0,5.274,3.3,9.585,7.383,9.585s7.383-4.265,7.383-9.585v-.5Z" transform="translate(-155.342 -360.402)" fill="#573724"/><path d="M180.359,458.1a7.662,7.662,0,0,0-6.512,11.694h1.972v-.367a4.448,4.448,0,1,1,8.9,0v.367h2.247a7.539,7.539,0,0,0,1.146-4.036A7.751,7.751,0,0,0,180.359,458.1Z" transform="translate(-127.134 -336.526)" fill="#573724"/><path d="M237.635,252.789l.367,8.53.413,8.53c.321,5.687.642,11.373,1.055,17.014a.217.217,0,0,0,.229.229.257.257,0,0,0,.275-.229c.413-5.687.734-11.373,1.055-17.014l.413-8.53.367-8.53c.092-2.843.321-5.687.5-8.53a75.614,75.614,0,0,0,.046-8.53c-.138-2.843-.413-5.687-.78-8.53a61.977,61.977,0,0,0-1.605-8.53.358.358,0,0,0-.183-.183.261.261,0,0,0-.321.183,69.713,69.713,0,0,0-1.605,8.53c-.367,2.843-.6,5.687-.78,8.53a75.6,75.6,0,0,0,.046,8.53C237.314,247.1,237.5,249.946,237.635,252.789Z" transform="translate(-161.939 -206.792)" fill="#573724"/><path d="M203.821,400.23c-1.238-.092-3.577,1.192-4.265-.321-.183-.413.367-.734.55-.688.092,0,.229.046.321.046h.046a1.009,1.009,0,0,1,.367-.046l.825-.138a10.662,10.662,0,0,1,1.7-.183,1.185,1.185,0,0,1,.963.78C204.509,400.138,204.1,400.276,203.821,400.23Z" transform="translate(-141.655 -304.475)" fill="#573724"/><path d="M203.127,405.253c-1.422-.138-7.017,1.192-7.888-.5-.229-.459.367-.78.642-.734a1.338,1.338,0,0,1,.413.092h.046a1.269,1.269,0,0,1,.413-.046l.963-.138c.642-.092,4.265-.183,4.907-.138a1.546,1.546,0,0,1,1.147.917C203.907,405.161,203.448,405.3,203.127,405.253Z" transform="translate(-139.31 -307.114)" fill="#573724"/><path d="M222.074,408.308a2.689,2.689,0,0,1-3.164.55c-.138,1.926-.229,2.2-.367,4.127a.83.83,0,0,1,.367.825,1.324,1.324,0,0,1-.6.871c-.6.459-2.66-.321-2.614-1.147.229-4.173.963-13.162,1.009-13.8.092-1.1,2.843-.092,2.8.826-.183,2.247-.321,4.54-.5,6.787h.046c.046,0,.046,0,.092-.046s.183-.138.229-.183c.367-.5,1.146-.229,1.651-.046a2.938,2.938,0,0,1,.871.6C221.982,407.758,222.211,408.124,222.074,408.308Z" transform="translate(-150.414 -304.665)" fill="#573724"/><path d="M204.246,419.122c-.183-.963-.734-.688-2.018-.688-.138,0-.917.092-1.192.138.092-.6.183-.413.321-1.009a1.068,1.068,0,0,0-.55-.917,2.979,2.979,0,0,0,1.513-.5c1.743-1.1,1.559-3.577.183-4.907-1.559-1.513-4.357-2.11-6.145-.688-.275.229-.138.55.183.871a2.749,2.749,0,0,0-.046,3.256,5.136,5.136,0,0,0,2.155,1.605v.092c-.138.917-.321,1.009-.459,1.926a1.009,1.009,0,0,0,.046.367c-.459,0-.963,0-1.422.046-.6,0-.734.459-.413.917a2.567,2.567,0,0,0,1.926.825c1.284-.046,2.568-.046,3.852-.092C202.917,420.268,204.43,420.223,204.246,419.122Zm-4.173-4.632a1.488,1.488,0,0,1-1.055.367v-.046a1.746,1.746,0,0,1-.229-.688,2.126,2.126,0,0,1,1.238-2.155c.321-.138.367-.321.275-.55.092,0,.138.046.138,0a1.378,1.378,0,0,1,.275.5A2.307,2.307,0,0,1,200.073,414.49Z" transform="translate(-139.741 -310.343)" fill="#573724"/><path d="M238.183,406.887a4.888,4.888,0,0,0-5-2.293h-.138c-.046,0-.092.046-.138.046a3.017,3.017,0,0,0-1.7,3.76c.688,1.972,3.348,2.981,5.274,2.431A2.6,2.6,0,0,0,238.183,406.887Zm-3.76,2.339c-.046,0-.183.046-.367.092a3.643,3.643,0,0,0-.183-.413,3.027,3.027,0,0,1-.046-.642,2.173,2.173,0,0,1,1.284-1.926h.183c.092.275.367.459.459.78A1.787,1.787,0,0,1,234.423,409.226Z" transform="translate(-158.728 -307.509)" fill="#573724"/><path d="M250.98,416.493c0,1.055-2.8.092-2.8-.826a98.389,98.389,0,0,0-.688-12.2c-.138-1.009,2.66-.138,2.752.825A98.957,98.957,0,0,1,250.98,416.493Z" transform="translate(-167.626 -306.706)" fill="#573724"/><path d="M270.388,408.961c-1.789.138-3.577.321-5.366.459a6.324,6.324,0,0,1-3.806-.367c-2.293-1.238-1.651-3.944-.917-6.008-.459-.413-.642-.871.183-.963a27.243,27.243,0,0,1,6.7.046c.55.046,1.559.459,1.743,1.055s-.367.734-.871.642a25.559,25.559,0,0,0-4.953-.138v.275l-.413,1.238a6.7,6.7,0,0,0,3.531-.459c.825-.321,3.256,1.192,2.064,1.7a8.894,8.894,0,0,1-5.87.229v.092a7.4,7.4,0,0,0,0,1.009c.183,0,.321-.046.5-.046,1.972-.183,3.944-.321,5.916-.5C269.746,407.126,272.039,408.823,270.388,408.961Z" transform="translate(-174.193 -306.098)" fill="#573724"/><path d="M286.687,407.927c-.046,1.1-2.8.092-2.752-.825a39.9,39.9,0,0,0-.138-5.732c-.092-1.009,2.66-.138,2.8.825A47.682,47.682,0,0,1,286.687,407.927Z" transform="translate(-187.282 -305.569)" fill="#573724"/><path d="M277.849,422.589c-.825-2.2-3.577-2.843-5.687-2.889a.535.535,0,0,0-.6.413,2.014,2.014,0,0,0-1.743,2.522c.413,2.018,2.843,3.164,4.724,3.164C276.336,425.8,278.674,424.745,277.849,422.589Zm-4.036,1.376c-2.155.5-1.009-2.431-.321-2.247.321.092,1.009.229,1.238-.138a.9.9,0,0,1,.55.871C275.281,423.323,274.547,423.782,273.813,423.965Z" transform="translate(-179.682 -315.736)" fill="#573724"/><path d="M222.962,323.1c-10.227,0-17.7-2.293-22.2-6.833a14.226,14.226,0,0,1-4.219-9.08V292.607h0v-4.724c16.6-8.622,25.773-16.051,28.846-23.388a52.5,52.5,0,0,0,3.164-30.267c-1.834-9.309-6.1-16.188-11.373-18.39a26.8,26.8,0,0,0-10.364-2.064,21.7,21.7,0,0,0-10.777-9.264c-5.5-2.018-11.786-1.422-18.619,1.743a45.7,45.7,0,0,0-4.953-4.861,35.332,35.332,0,0,0-20.178-8.3V193a9.973,9.973,0,0,0-1.192.046c-.413,0-.825-.046-1.192-.046v.092a35.458,35.458,0,0,0-20.178,8.3,37.836,37.836,0,0,0-4.311,4.127c-6.191-2.522-11.878-2.889-16.968-1.055a21.312,21.312,0,0,0-10.777,9.309,26.783,26.783,0,0,0-12.015,1.972c-5.274,2.2-9.493,9.08-11.373,18.39A52.808,52.808,0,0,0,77.45,264.4c3.027,7.246,12.015,14.583,28.25,23.067v35.174a45.364,45.364,0,0,0,88.83,12.978c7.888,8.3,26.965,8.9,27.974,8.9l3.485.092-5.962-12.336,7.062-9.264h-4.127ZM215.579,219.92c3.76,1.605,7.2,7.521,8.667,15.088a47.636,47.636,0,0,1-2.935,27.653c-2.293,5.457-9.355,11.465-21.508,18.3a84.2,84.2,0,0,0,3.715-9.264c.5-1.513.963-2.981,1.376-4.448l.275-.275c.046-.046.046-.046.046-.092a.237.237,0,0,0-.138-.321c2.752-10.594,2.935-20.591.459-29.167A40.371,40.371,0,0,0,196.41,221.2a31.055,31.055,0,0,1,6.741-2.66A22.806,22.806,0,0,1,215.579,219.92Zm-21-11.236a16.586,16.586,0,0,1,7.292,5.549,37.334,37.334,0,0,0-8.851,3.669,57.154,57.154,0,0,0-12.2-8.163C185.954,207.583,190.585,207.262,194.575,208.684Zm-84.382,0c3.623-1.33,7.8-1.146,12.382.5l-.046.046a58.639,58.639,0,0,0-12.841,8.392,41.86,41.86,0,0,0-7.062-3.073A17.113,17.113,0,0,1,110.193,208.684ZM81.761,262.707a48.474,48.474,0,0,1-2.935-27.653c1.513-7.613,4.907-13.529,8.667-15.088a22.871,22.871,0,0,1,12.474-1.376,30.839,30.839,0,0,1,6.329,2.431,40.868,40.868,0,0,0-9.355,16.418c-2.889,9.952-2.2,21.829,1.972,34.3a92.891,92.891,0,0,0,3.485,8.805C90.795,273.9,84.008,268.072,81.761,262.707ZM192.1,311.96s-.183,14.767-.6,17.564a40.874,40.874,0,0,1-81.171-6.833V309.3h81.722v2.66Zm0-26.048v3.164h0v15.959H110.331V285.912l-.046-.046H192.1Zm2.385-4.265H107.946a86.634,86.634,0,0,1-4.861-11.74c.642.275,1.238.55,1.88.78a10.324,10.324,0,0,0,1.605.413c.55.092,1.1.138,1.651.183,1.1,0,2.247,0,3.348.046s2.2.046,3.348.046c1.1-.046,2.2-.092,3.348-.183a52.563,52.563,0,0,0,6.558-.963.2.2,0,0,0,.183-.183c0-.138-.092-.275-.183-.275h0c-.55-.092-1.1-.138-1.605-.229l-.825-.092-.825-.138c-.55-.092-1.055-.138-1.605-.229l-1.605-.275-.78-.138-.78-.138-1.559-.321c-1.055-.229-2.11-.413-3.118-.642-1.055-.229-2.064-.6-3.073-.917a9.286,9.286,0,0,0-1.513-.413,9.038,9.038,0,0,0-1.559-.183c-.55-.046-1.055-.046-1.605-.046s-1.1,0-1.651.046c-.229,0-.5.046-.734.046-2.2-8.117-3.348-17.794-.734-27.057a19.175,19.175,0,0,0,1.972,2.293,14.269,14.269,0,0,0,1.284,1.055,14.7,14.7,0,0,0,1.422.871c1.009.5,2.018.963,3.027,1.467.963.5,1.972,1.009,2.981,1.468,1.009.413,2.018.871,3.073,1.238a52.787,52.787,0,0,0,6.329,1.926.337.337,0,0,0,.275-.092.221.221,0,0,0-.046-.321h0c-.459-.321-.917-.6-1.376-.871l-.688-.413-.688-.459c-.459-.321-.917-.6-1.33-.917l-1.33-.917-.642-.459-.642-.459-1.284-.963c-.871-.642-1.7-1.284-2.522-1.926s-1.605-1.422-2.385-2.11a15.372,15.372,0,0,0-2.568-1.88,13.816,13.816,0,0,0-1.422-.734,14.986,14.986,0,0,0-1.513-.642c-.275-.092-.55-.229-.825-.321,3.3-8.53,9.722-15.546,19.215-20.866a13.727,13.727,0,0,0,.78,3.073,9.007,9.007,0,0,0,.688,1.513,9.382,9.382,0,0,0,.917,1.422c.688.917,1.376,1.743,2.064,2.66.642.917,1.33,1.789,2.018,2.66.734.825,1.422,1.7,2.2,2.522a50.438,50.438,0,0,0,4.815,4.586.3.3,0,0,0,.275.046c.138-.046.138-.229.092-.321h0c-.275-.459-.55-.963-.825-1.422l-.413-.688-.413-.688c-.275-.459-.55-.917-.825-1.422l-.78-1.422-.367-.688-.367-.734-.734-1.422c-.459-.963-.963-1.926-1.422-2.889s-.825-1.972-1.192-2.981a14.167,14.167,0,0,0-.642-1.468,10.919,10.919,0,0,0-.825-1.376,13.389,13.389,0,0,0-.963-1.284c-.321-.413-.688-.825-1.055-1.238l.55-.275.6-.275.367-.55c.092-.138,8.9-14.033,25.269-14.675a30.363,30.363,0,0,1,18.344,7.246,33.924,33.924,0,0,1,6.833,7.429l.367.55.6.275c.6.275,1.192.6,1.789.871-.183.229-.321.413-.5.642-.321.413-.642.871-.963,1.284a13.649,13.649,0,0,0-.825,1.376,14.167,14.167,0,0,0-.642,1.468c-.367,1.009-.734,2.018-1.192,2.981s-.917,1.926-1.422,2.889l-.734,1.422-.367.734-.413.55-.78,1.422c-.275.459-.55.917-.825,1.422l-.413.688-.413.688c-.275.459-.55.917-.826,1.422h0a.216.216,0,0,0,.046.275.227.227,0,0,0,.321.046,50.431,50.431,0,0,0,4.815-4.586c.78-.825,1.468-1.651,2.2-2.522.688-.871,1.376-1.743,2.018-2.66s1.376-1.743,2.064-2.66a15.061,15.061,0,0,0,.917-1.422c.275-.5.459-1.009.688-1.513a16.583,16.583,0,0,0,.6-2.155c8.805,5.32,14.813,12.2,17.839,20.545-.275.138-.55.229-.825.367a13.817,13.817,0,0,0-1.422.734,13.28,13.28,0,0,0-1.33.871c-.413.321-.825.642-1.238,1.009-.78.734-1.559,1.467-2.385,2.11s-1.7,1.284-2.522,1.926l-1.284.963-.642.459-.642.459-1.33.917a13.642,13.642,0,0,0-1.33.917l-.688.459-.688.413c-.459.275-.917.6-1.376.871h0a.2.2,0,0,0-.092.275c.046.138.183.229.275.183a50.362,50.362,0,0,0,6.329-1.926c1.055-.367,2.064-.825,3.073-1.238,1.009-.459,2.018-.917,2.981-1.468,1.009-.5,2.018-.963,3.027-1.467a14.71,14.71,0,0,0,1.422-.871,14.28,14.28,0,0,0,1.284-1.055,8.805,8.805,0,0,0,.642-.688c2.018,8.713.917,17.7-1.146,25.315h-.688c-.55,0-1.055.046-1.605.046-.55.046-1.055.092-1.559.183a9.286,9.286,0,0,0-1.513.413c-1.009.321-2.018.688-3.073.917s-2.064.459-3.118.642l-1.559.321-.78.138-.78.138-1.605.275c-.55.092-1.055.138-1.605.229l-.825.138-.825.092c-.55.092-1.1.138-1.605.229h0a.2.2,0,0,0-.183.183.2.2,0,0,0,.183.275A52.569,52.569,0,0,0,186,271.1c1.1.092,2.2.138,3.348.183,1.1,0,2.2,0,3.348-.046,1.1-.046,2.247,0,3.348-.046.55-.046,1.1-.092,1.651-.183.5-.092,1.009-.229,1.513-.367A97.7,97.7,0,0,1,194.483,281.647Zm14.171,56.591a27.177,27.177,0,0,1-9.31-4.127,9.054,9.054,0,0,1-3.3-4.173,47.285,47.285,0,0,0,.6-7.246v-4.769a8.928,8.928,0,0,0,1.1,1.192c4.632,4.769,11.74,7.475,21.1,8.071l-3.531,4.632,3.99,8.255A61.7,61.7,0,0,1,208.654,338.237Z" transform="translate(-73.341 -193)" fill="#573724"/></g></g></g></svg>