<svg id="south-korea" xmlns="http://www.w3.org/2000/svg" width="73.041" height="73.041" viewBox="0 0 73.041 73.041">
  <rect id="Rectangle_23" data-name="Rectangle 23" width="73.041" height="73.041" rx="36.521" fill="#fff"/>
  <path id="Path_317" data-name="Path 317" d="M188.5,175.028c0,3.368-6.032,11.789-13.473,11.789s-13.473-8.421-13.473-11.789a13.473,13.473,0,1,1,26.947,0Z" transform="translate(-138.508 -138.508)" fill="#d80027"/>
  <path id="Path_318" data-name="Path 318" d="M188.5,256a13.473,13.473,0,1,1-26.947,0" transform="translate(-138.508 -219.479)" fill="#0052b4"/>
  <rect id="Rectangle_24" data-name="Rectangle 24" width="5.053" height="3.368" transform="translate(50.812 48.431) rotate(-45)"/>
  <rect id="Rectangle_25" data-name="Rectangle 25" width="5.052" height="3.368" transform="translate(44.858 54.385) rotate(-45)"/>
  <rect id="Rectangle_26" data-name="Rectangle 26" width="5.053" height="3.368" transform="translate(57.958 55.573) rotate(-45)"/>
  <rect id="Rectangle_27" data-name="Rectangle 27" width="5.052" height="3.368" transform="translate(52.003 61.53) rotate(-45)"/>
  <rect id="Rectangle_28" data-name="Rectangle 28" width="5.052" height="3.368" transform="translate(54.385 52.002) rotate(-45)"/>
  <rect id="Rectangle_29" data-name="Rectangle 29" width="5.052" height="3.368" transform="translate(48.431 57.958) rotate(-45)"/>
  <rect id="Rectangle_30" data-name="Rectangle 30" width="13.473" height="3.368" transform="translate(57.956 24.61) rotate(-135)"/>
  <rect id="Rectangle_31" data-name="Rectangle 31" width="5.053" height="3.368" transform="translate(48.432 22.228) rotate(-135)"/>
  <rect id="Rectangle_32" data-name="Rectangle 32" width="5.052" height="3.368" transform="translate(54.384 28.183) rotate(-135)"/>
  <rect id="Rectangle_33" data-name="Rectangle 33" width="5.053" height="3.368" transform="translate(55.574 15.084) rotate(-135)"/>
  <rect id="Rectangle_34" data-name="Rectangle 34" width="5.052" height="3.368" transform="translate(61.53 21.037) rotate(-135)"/>
  <rect id="Rectangle_35" data-name="Rectangle 35" width="13.473" height="3.368" transform="translate(11.511 52.003) rotate(45)"/>
  <rect id="Rectangle_36" data-name="Rectangle 36" width="5.053" height="3.368" transform="translate(21.037 54.384) rotate(45)"/>
  <rect id="Rectangle_37" data-name="Rectangle 37" width="5.053" height="3.368" transform="translate(15.084 48.43) rotate(45)"/>
  <rect id="Rectangle_38" data-name="Rectangle 38" width="13.473" height="3.368" transform="translate(18.657 44.858) rotate(45)"/>
  <rect id="Rectangle_39" data-name="Rectangle 39" width="13.473" height="3.368" transform="translate(21.038 11.512) rotate(135)"/>
  <rect id="Rectangle_40" data-name="Rectangle 40" width="13.473" height="3.368" transform="translate(24.61 15.085) rotate(135)"/>
  <rect id="Rectangle_41" data-name="Rectangle 41" width="13.473" height="3.368" transform="translate(28.183 18.657) rotate(135)"/>
</svg>
