<?xml version="1.0" encoding="iso-8859-1"?>
<!-- Generator: Adobe Illustrator 19.0.0, SVG Export Plug-In . SVG Version: 6.00 Build 0)  -->
<svg version="1.1" id="Capa_1" xmlns="http://www.w3.org/2000/svg" xmlns:xlink="http://www.w3.org/1999/xlink" x="0px" y="0px"
	 viewBox="0 0 496 496" style="enable-background:new 0 0 496 496;" xml:space="preserve">
<g>
	<g>
		<g>
			<path d="M491.072,195.32L424,46.28V29.336C424,13.16,410.84,0,394.664,0c-9.184,0-17.952,4.384-23.464,11.736L355.44,32.76
				L208.832,62.08C199.08,64.032,192,72.664,192,82.608v32.032c0,5.512,2.232,10.904,6.136,14.808l24.424,24.424
				c0.92,0.92,1.44,2.192,1.44,3.488v29.696c0,3.496-4.064,5.976-7.16,4.424l-41.936-20.976c-3.288-1.64-6.968-2.504-10.632-2.504
				h-20.496C130.672,168,120,178.672,120,191.784v8.44C120,213.328,130.672,224,143.784,224c2.536,0,4.92,1.24,6.376,3.32
				l49.84,71.2v26.576l-35.016,42.016c-3.208,3.856-4.984,8.744-4.984,13.768v37.64c0,11.848,9.632,21.48,21.48,21.48h13.048
				c11.84,0,21.472-9.632,21.472-21.48c0-2.512,1.712-4.704,4.152-5.32L368.984,376H456c22.056,0,40-17.944,40-40V218.304
				C496,210.32,494.344,202.584,491.072,195.32z M480,336c0,13.232-10.768,24-24,24h-88l-151.728,37.688
				C206.688,400.08,200,408.648,200,418.52c0,3.024-2.456,5.48-5.48,5.48h-13.048c-3.016,0-5.472-2.456-5.472-5.48v-37.64
				c0-1.28,0.448-2.528,1.272-3.504L216,330.896v-37.424l-52.736-75.328C158.824,211.8,151.528,208,143.784,208
				c-4.288,0-7.784-3.496-7.784-7.784v-8.44c0-4.28,3.496-7.776,7.784-7.776h20.496c1.2,0,2.416,0.28,3.488,0.824l41.928,20.968
				c2.88,1.44,6.128,2.208,9.36,2.208C230.6,208,240,198.6,240,187.056V157.36c0-5.512-2.232-10.904-6.136-14.808l-24.424-24.424
				c-0.92-0.92-1.44-2.192-1.44-3.488V82.608c0-2.344,1.672-4.384,3.976-4.84L364.56,47.24L384,21.328
				c2.504-3.336,6.496-5.328,10.664-5.328C402.016,16,408,21.984,408,29.336V49.72l68.48,152.168
				c2.336,5.192,3.52,10.72,3.52,16.424V336z"/>
			<path d="M96,400H80c-19.32,0-35.48,13.768-39.192,32H32c-17.648,0-32,14.352-32,32s14.352,32,32,32h64c22.056,0,40-17.944,40-40
				v-16C136,417.944,118.056,400,96,400z M120,456c0,13.232-10.768,24-24,24H32c-8.824,0-16-7.176-16-16c0-8.824,7.176-16,16-16h24
				v-8c0-13.232,10.768-24,24-24h16c13.232,0,24,10.768,24,24V456z"/>
			<path d="M354.336,96h-4.672C302.432,96,264,134.432,264,181.664c0,13.24,3.136,26.496,9.048,38.312l48.64,97.288
				C327.464,328.824,339.08,336,352,336c12.92,0,24.536-7.176,30.312-18.736l48.64-97.288c5.912-11.816,9.048-25.072,9.048-38.312
				C440,134.432,401.568,96,354.336,96z M416.64,212.824L368,310.112c-3.048,6.096-9.176,9.888-16,9.888
				c-6.824,0-12.952-3.792-16-9.888l-48.64-97.288c-4.816-9.624-7.36-20.392-7.36-31.16C280,143.248,311.248,112,349.664,112h4.672
				C392.752,112,424,143.248,424,181.664C424,192.432,421.456,203.2,416.64,212.824z"/>
			<path d="M352,136c-26.472,0-48,21.528-48,48s21.528,48,48,48s48-21.528,48-48S378.472,136,352,136z M352,216
				c-17.648,0-32-14.352-32-32s14.352-32,32-32s32,14.352,32,32S369.648,216,352,216z"/>
			<rect x="344" y="248" width="16" height="16"/>
		</g>
	</g>
</g>
<g>
</g>
<g>
</g>
<g>
</g>
<g>
</g>
<g>
</g>
<g>
</g>
<g>
</g>
<g>
</g>
<g>
</g>
<g>
</g>
<g>
</g>
<g>
</g>
<g>
</g>
<g>
</g>
<g>
</g>
</svg>
