<svg xmlns="http://www.w3.org/2000/svg" width="72.055" height="72.053" viewBox="0 0 72.055 72.053"><g transform="translate(-1963.009 -9919.938)"><path d="M197,179.277c0,4.43-7.934,15.506-17.722,15.506s-17.722-11.076-17.722-15.506a17.722,17.722,0,0,1,35.443,0Z" transform="translate(1819.759 9776.688)" fill="#fff"/><path d="M197,256a17.722,17.722,0,0,1-35.443,0" transform="translate(1819.759 9699.965)" fill="#fff"/><rect width="6.646" height="4.43" transform="translate(2017.834 9971.631) rotate(-45)" fill="#fff"/><rect width="6.645" height="4.43" transform="translate(2010.002 9979.462) rotate(-45)" fill="#fff"/><rect width="6.646" height="4.43" transform="translate(2027.232 9981.024) rotate(-45)" fill="#fff"/><rect width="6.645" height="4.43" transform="translate(2019.4 9988.859) rotate(-45)" fill="#fff"/><rect width="6.645" height="4.43" transform="translate(2022.533 9976.327) rotate(-45)" fill="#fff"/><rect width="6.645" height="4.43" transform="translate(2014.701 9984.161) rotate(-45)" fill="#fff"/><rect width="17.721" height="4.43" transform="translate(2027.23 9940.298) rotate(-135)" fill="#fff"/><rect width="6.646" height="4.43" transform="translate(2014.702 9937.165) rotate(-135)" fill="#fff"/><rect width="6.645" height="4.43" transform="translate(2022.532 9944.998) rotate(-135)" fill="#fff"/><rect width="6.646" height="4.43" transform="translate(2024.096 9927.77) rotate(-135)" fill="#fff"/><rect width="6.645" height="4.43" transform="translate(2031.93 9935.6) rotate(-135)" fill="#fff"/><rect width="17.721" height="4.43" transform="translate(1966.141 9976.329) rotate(45)" fill="#fff"/><rect width="6.646" height="4.43" transform="translate(1978.67 9979.46) rotate(45)" fill="#fff"/><rect width="6.646" height="4.43" transform="translate(1970.839 9971.629) rotate(45)" fill="#fff"/><rect width="17.721" height="4.43" transform="translate(1975.54 9966.932) rotate(45)" fill="#fff"/><rect width="17.721" height="4.43" transform="translate(1978.671 9923.07) rotate(135)" fill="#fff"/><rect width="17.721" height="4.43" transform="translate(1983.37 9927.77) rotate(135)" fill="#fff"/><rect width="17.721" height="4.43" transform="translate(1988.069 9932.469) rotate(135)" fill="#fff"/></g></svg>