<?xml version="1.0"?>
<svg xmlns="http://www.w3.org/2000/svg" xmlns:xlink="http://www.w3.org/1999/xlink" version="1.1" id="Capa_1" x="0px" y="0px" viewBox="0 0 496 496" style="enable-background:new 0 0 496 496;" xml:space="preserve" width="512px" height="512px" class=""><g><g>
	<g>
		<g>
			<path d="M328,160c-9.872,0-19.496,1.024-28.912,2.672c-2.328-3.832-4.664-7.44-7.088-10.672l-42.632-56.84l18.416-36.832     c2.752-5.52,4.216-11.712,4.216-17.88v-6.392C272,15.272,256.728,0,237.944,0c-11.424,0-22.016,5.672-28.336,15.168l-3.832,5.744     c-2.576,3.872-8.984,3.872-11.56,0l-3.832-5.744C184.072,5.672,173.48,0,162.056,0h-4.112c-11.424,0-22.016,5.672-28.336,15.168     l-3.832,5.744c-2.576,3.872-8.984,3.872-11.56,0l-3.832-5.744C104.072,5.672,93.48,0,82.056,0C63.272,0,48,15.272,48,34.056     v6.392c0,6.168,1.464,12.36,4.216,17.888L70.632,95.16L28,152C9.944,176.08,0,205.912,0,236c0,77.192,62.808,140,140,140h27.072     c20.72,69.304,84.976,120,160.928,120c92.632,0,168-75.368,168-168S420.632,160,328,160z M66.528,51.184     C64.872,47.864,64,44.152,64,40.448v-6.392C64,24.104,72.104,16,82.056,16c6.056,0,11.672,3.008,15.024,8.04l3.832,5.744     C105.176,36.176,112.312,40,120,40s14.824-3.824,19.096-10.216l3.832-5.744c3.344-5.032,8.96-8.04,15.016-8.04h4.112     c6.056,0,11.672,3.008,15.024,8.04l3.832,5.744C185.176,36.176,192.312,40,200,40s14.824-3.824,19.096-10.216l3.832-5.744     c3.344-5.032,8.96-8.04,15.016-8.04C247.896,16,256,24.104,256,34.056v6.392c0,3.704-0.872,7.424-2.528,10.736L235.056,88H84.944     L66.528,51.184z M163.144,360H140c-68.376,0-124-55.624-124-124c0-26.648,8.808-53.072,24.8-74.408L84,104h152l43.192,57.592     c1.128,1.504,2.24,3.168,3.344,4.824C211.952,186.312,160,251.136,160,328C160,338.952,161.128,349.632,163.144,360z M328,480     c-83.816,0-152-68.184-152-152s68.184-152,152-152s152,68.184,152,152S411.816,480,328,480z" data-original="#000000" class="active-path" data-old_color="#000000" fill="#FFFFFF"/>
			<path d="M328,192c-74.992,0-136,61.008-136,136s61.008,136,136,136c33.168,0,65.12-12.08,89.96-34l-10.592-12     c-21.912,19.344-50.104,30-79.368,30c-66.168,0-120-53.832-120-120s53.832-120,120-120s120,53.832,120,120     c0,30.832-11.672,60.128-32.856,82.496l11.624,11C450.776,396.144,464,362.936,464,328C464,253.008,402.992,192,328,192z" data-original="#000000" class="active-path" data-old_color="#000000" fill="#FFFFFF"/>
			<path d="M224,352h35.36l14.224,64h20.664l16-64h35.504l16,64h20.664l14.224-64H432v-16h-31.808l3.56-16H432v-16h-24.696     l8.504-38.264l-15.624-3.472L390.912,304h-40.664l-8-32h-28.496l-8,32h-40.664l-9.272-41.736l-15.624,3.472L248.696,304H224v16     h28.248l3.56,16H224V352z M371.776,390.128L362.248,352h18L371.776,390.128z M387.36,320l-3.552,16h-25.56l-4-16H387.36z      M326.248,288h3.504l4,16h-11.504L326.248,288z M318.248,320h19.504l4,16h-27.504L318.248,320z M284.224,390.128L275.752,352h18     L284.224,390.128z M301.752,320l-4,16h-25.56l-3.552-16H301.752z" data-original="#000000" class="active-path" data-old_color="#000000" fill="#FFFFFF"/>
		</g>
	</g>
</g></g> </svg>
