<?xml version="1.0"?>
<svg xmlns="http://www.w3.org/2000/svg" xmlns:xlink="http://www.w3.org/1999/xlink" version="1.1" id="Capa_1" x="0px" y="0px" viewBox="0 0 496 496" style="enable-background:new 0 0 496 496;" xml:space="preserve" width="512px" height="512px" class=""><g><g>
	<g>
		<path d="M414.408,450.376l-38.024-98.88C386.456,338.04,392,321.384,392,304.584c0-12.016-2.264-23.776-6.736-34.96l-0.864-2.168    c-6.424-16.04-17.112-29.992-30.92-40.336l-9.592-7.192c-0.6-15.48-8.152-30.12-20.584-39.44l-6.384-4.792    c1.016,0.128,2.024,0.304,3.08,0.304c12.584,0,22.824-9.768,23.808-22.104C353.544,145.752,360,130.224,360,112    c0-23.568-10.784-42.672-25.512-47.048c-3.064-7.672-10.928-13.56-21.168-15.832C305.016,20.36,278.384,0,248,0    c-30.384,0-57.016,20.36-65.32,49.12c-10.24,2.28-18.104,8.16-21.168,15.832C146.784,69.328,136,88.432,136,112    c0,18.224,6.456,33.752,16.192,41.896C153.176,166.232,163.416,176,176,176c1.056,0,2.064-0.176,3.088-0.312l-6.384,4.792    c-12.432,9.328-19.984,23.96-20.584,39.44l-9.592,7.192c-13.816,10.352-24.496,24.304-30.912,40.336l-0.88,2.184    c-4.472,11.184-6.736,22.936-6.736,34.952c0,16.792,5.544,33.448,15.616,46.912L81.6,450.368C80.536,453.12,80,456,80,458.944    c0,11.528,8.232,21.416,19.576,23.496C127.072,487.504,182.92,496,248,496s120.928-8.496,148.424-13.56    C407.768,480.36,416,470.48,416,458.944C416,456,415.464,453.12,414.408,450.376z M341.392,238.04l2.496,1.872    c11.464,8.592,20.336,20.168,25.664,33.488l0.864,2.168c3.704,9.28,5.584,19.04,5.584,29.016c0,13.376-4.424,26.64-12.448,37.344    c-5.776,7.696-13.368,14.032-21.968,18.328l-9.08,4.544c-4.352-27.672-12.792-54.688-25.128-79.8    c6.44-3.504,11.08-9.808,12.248-17.312l9.216-9.216C334.672,252.64,338.896,245.656,341.392,238.04z M264,64c4.416,0,8,3.592,8,8    s-3.584,8-8,8h-8v8c0,4.408-3.584,8-8,8c-4.416,0-8-3.592-8-8v-8h-8c-4.416,0-8-3.592-8-8s3.584-8,8-8h8v-8c0-4.408,3.584-8,8-8    s8,3.592,8,8v8H264z M248,112c26.472,0,48,21.528,48,48s-21.528,48-48,48s-48-21.528-48-48S221.528,112,248,112z M252.936,223.752    L248,228.688l-4.936-4.936c1.632,0.12,3.272,0.248,4.936,0.248S251.304,223.872,252.936,223.752z M216,219.312l32,32l32-32    L292.688,232L248,276.688L203.312,232L216,219.312z M296,256c4.416,0,8,3.584,8,8c0,4.416-3.584,8-8,8c-4.416,0-8-3.584-8-8    C288,259.584,291.584,256,296,256z M208,264c0,4.416-3.584,8-8,8s-8-3.584-8-8c0-4.416,3.584-8,8-8S208,259.584,208,264z     M203.784,290.336l1.48-2.96c7.584-1.704,13.832-6.976,16.824-13.984l0.376,0.376l-3.776,8.496    c-16.616,37.392-25.44,76.968-26.472,117.736h-16.08C177.296,362.04,186.8,324.28,203.784,290.336z M192,416h36l20-26.664L268,416    h36v24h-56h-56V416z M303.84,400c-0.144-5.552-0.376-11.112-0.816-16.632l-15.952,1.264c0.408,5.104,0.632,10.24,0.768,15.368H276    l-28-37.336L220,400h-11.792c1.032-38.512,9.392-75.904,25.096-111.232l1.28-2.872L248,299.312l13.416-13.416l1.28,2.872    c11.368,25.552,19.008,52.568,22.712,80.304l15.856-2.128c-3.904-29.24-11.968-57.736-23.944-84.68l-3.776-8.496l0.376-0.376    c2.992,7.008,9.24,12.28,16.824,13.984l1.48,2.96C309.208,324.288,318.712,362.04,319.88,400H303.84z M328,221.872    c0,9.552-3.72,18.528-10.472,25.288l-2.448,2.448c-2.512-3.328-5.808-6.032-9.688-7.688l9.92-9.92l-24.536-24.536    c6.24-5.632,11.36-12.456,15.008-20.136l7.92,5.944C322.656,199.992,328,210.68,328,221.872z M320,160c-4.416,0-8-3.592-8-8    s3.584-8,8-8c4.416,0,8,3.592,8,8S324.416,160,320,160z M333.088,82.04C338.896,86.44,344,97.776,344,112    c0,9.976-2.544,18.472-6.04,24.24c-4.408-5.008-10.784-8.24-17.96-8.24c-5.32,0-10.2,1.8-14.184,4.744    c-7.312-15.448-20.592-27.488-36.88-33.152c0.816-1.464,1.536-2.992,2.032-4.624c3.864-1.176,7.296-3.328,10.072-6.136    C286.816,93.272,294.896,96,304,96C317.12,96,328.096,90.336,333.088,82.04z M304,64c9.768,0,16,4.736,16,8s-6.232,8-16,8    s-16-4.736-16-8S294.232,64,304,64z M248,16c21.504,0,40.56,13.336,48.304,32.744c-5.936,1.064-11.184,3.288-15.264,6.416    c-2.776-2.808-6.2-4.96-10.072-6.136C267.976,39.184,258.816,32,248,32c-10.816,0-19.976,7.184-22.968,17.032    c-3.864,1.176-7.296,3.328-10.072,6.136c-4.08-3.128-9.336-5.352-15.264-6.416C207.44,29.336,226.496,16,248,16z M192,64    c9.768,0,16,4.736,16,8s-6.232,8-16,8s-16-4.736-16-8S182.232,64,192,64z M158.04,136.24c-3.496-5.768-6.04-14.264-6.04-24.24    c0-14.224,5.104-25.56,10.912-29.96C167.904,90.336,178.88,96,192,96c9.104,0,17.184-2.728,22.96-7.168    c2.776,2.808,6.2,4.96,10.072,6.136c0.496,1.632,1.216,3.152,2.032,4.624c-16.288,5.664-29.568,17.704-36.88,33.152    C186.2,129.8,181.32,128,176,128C168.824,128,162.448,131.232,158.04,136.24z M176,160c-4.416,0-8-3.592-8-8s3.584-8,8-8    s8,3.592,8,8S180.416,160,176,160z M182.296,193.272l7.92-5.944c3.648,7.68,8.76,14.504,15.008,20.136L180.688,232l9.92,9.92    c-3.88,1.656-7.176,4.36-9.688,7.688l-2.448-2.448C171.72,240.408,168,231.424,168,221.872    C168,210.68,173.344,199.992,182.296,193.272z M125.576,275.576l0.88-2.184c5.32-13.304,14.192-24.888,25.656-33.48l2.488-1.872    c2.496,7.616,6.72,14.6,12.544,20.432l9.216,9.208c1.168,7.512,5.808,13.808,12.248,17.312    c-12.336,25.112-20.776,52.128-25.128,79.8l-9.08-4.544c-8.6-4.296-16.192-10.632-21.968-18.32    C124.424,331.224,120,317.96,120,304.584C120,294.608,121.88,284.848,125.576,275.576z M393.528,466.704    C371.824,470.704,314.184,480,248,480s-123.824-9.296-145.528-13.296c-3.752-0.688-6.472-3.952-6.472-7.76    c0-0.96,0.176-1.912,0.528-2.824l35.288-91.752c4.728,3.992,9.912,7.44,15.44,10.2l14.112,7.064C160.536,390.4,160,399.2,160,408    v8h16v40h72h72v-40h16v-8c0-8.8-0.536-17.6-1.376-26.368l14.112-7.064c5.528-2.76,10.712-6.208,15.44-10.2l35.296,91.76    c0.352,0.904,0.528,1.856,0.528,2.816C400,462.752,397.28,466.016,393.528,466.704z" data-original="#000000" class="active-path" data-old_color="#000000" fill="#FFFFFF"/>
	</g>
</g></g> </svg>
