<svg xmlns="http://www.w3.org/2000/svg" width="73.065" height="73" viewBox="0 0 73.065 73"><g transform="translate(0.048 -0.22)"><path d="M72.894,33.979a1.173,1.173,0,0,0,.072-.356,1.22,1.22,0,0,0-.061-.379l-.094-.266A36.461,36.461,0,0,0,59.536,8.432C59,8,58.439,7.6,57.878,7.2c-.028-.023-.043-.056-.073-.078s-.055-.02-.08-.036A36.641,36.641,0,0,0,36.445.221c-.314,0-.63,0-.865.024A35.722,35.722,0,0,0,23.667,2.537a10.958,10.958,0,0,0-17.7,8.655,11.579,11.579,0,0,0,.957,4.041,36.649,36.649,0,0,0-3.273,5.393c-.018.029-.029.061-.045.091A36.572,36.572,0,0,0,68.64,54.148,36,36,0,0,0,72.965,38.58c.038-.588.051-1.187.051-1.788,0-.945-.049-1.881-.122-2.814Zm-3.542-6.256c-.155-.137-.3-.3-.46-.423a16.066,16.066,0,0,0-5.323-2.658,11.458,11.458,0,0,0-5.345-.056,10.539,10.539,0,0,1-4.554.023c-2.914-.636-5.217-1.138-6.439-3.089-1.749-2.8-.929-6.745.917-8.132a2.782,2.782,0,0,1,2.086-.445,7.793,7.793,0,0,0,3.779-.636A9.8,9.8,0,0,0,57.306,9.8c.23.178.474.338.7.522a34.086,34.086,0,0,1,11.347,17.4ZM16.94,2.66a8.547,8.547,0,0,1,8.533,8.533c0,3.646-5.477,11.995-8.533,16.227a76.612,76.612,0,0,1-7.52-12.5,10.161,10.161,0,0,1-1.013-3.73A8.543,8.543,0,0,1,16.94,2.659ZM2.312,36.793A34.517,34.517,0,0,1,3,30.029c.13,1.695.351,3.2.549,4.51.755,5,1.469,9.71,5.153,14.019,1.54,1.815,4.12,4.851,8.109,5.3s8.983-1.846,10.426-2.56l.554-.279a5.362,5.362,0,0,1,2.547-.815,6.013,6.013,0,0,1,3.989,2.037c2.08,2.3,2.608,6.148,1.13,8.229a3.744,3.744,0,0,1-1.873,1.3,5.7,5.7,0,0,0-3.057,2.438A7.528,7.528,0,0,0,30,70.3,34.186,34.186,0,0,1,2.312,36.793ZM36.445,70.926a34.386,34.386,0,0,1-3.527-.182,4.319,4.319,0,0,1-.278-.4,5.187,5.187,0,0,1-.023-4.89,3.363,3.363,0,0,1,1.914-1.44,6.074,6.074,0,0,0,2.907-2.135c2.12-2.982,1.52-8.147-1.3-11.271a8.371,8.371,0,0,0-5.774-2.844h-.054a7.388,7.388,0,0,0-3.632,1.082l-.52.263c-2.664,1.313-6.454,2.611-9.077,2.316-3.027-.339-5.13-2.816-6.524-4.457-3.233-3.779-3.866-7.961-4.6-12.8A35.052,35.052,0,0,1,5.863,21.63,34.191,34.191,0,0,1,8.072,17.8c.04.081.085.164.122.244.078.155.158.308.243.463.122.23.244.461.366.693q.126.234.256.469.194.347.391.695c.088.154.176.308.265.461q.2.347.408.692c.09.151.179.3.27.451.144.243.289.471.435.707.083.133.164.268.243.4.18.289.36.57.539.854.048.073.1.15.142.222q.335.519.662,1.012c.083.122.163.244.244.366.134.2.268.4.4.595l.289.423c.1.155.211.31.313.457l.292.42c.09.131.181.259.267.382s.184.263.274.388l.223.314.243.336.2.276.194.267.158.214.149.2.089.122c.109.148.192.258.215.289a1.218,1.218,0,0,0,1.95,0c1.023-1.357,10-13.39,10-19.024,0-.356-.022-.71-.056-1.061-.011-.108-.028-.217-.042-.325-.032-.244-.069-.488-.121-.732-.023-.122-.049-.236-.076-.354q-.085-.366-.2-.732c-.03-.1-.056-.2-.088-.292-.11-.327-.233-.65-.373-.964-.027-.06-.059-.122-.087-.177-.122-.254-.243-.5-.384-.75-.061-.11-.128-.215-.193-.323q-.176-.288-.366-.568c-.076-.108-.152-.217-.232-.323-.042-.054-.077-.111-.122-.163A33.291,33.291,0,0,1,33.41,2.806c-1.9,3.588-2.521,6.906-1.812,9.874a12.71,12.71,0,0,0,2.926,5.333c1.147,1.42,1.972,2.444,1.921,4.115-.1,3.535-4.1,6.478-5.608,7.59a20.992,20.992,0,0,1-6.546,3.162c-2.214.723-4.124,1.347-4.855,3.527a6.95,6.95,0,0,0,2.952,7.517,6.158,6.158,0,0,0,4.858.429,15,15,0,0,1,5.38-.257c2.316.328,4.313.61,5.26,1.936.562.792.533,1.611.423,3.114a14.769,14.769,0,0,0,.632,6.318c.556,1.668,1.4,4.186,3.414,4.477a2.523,2.523,0,0,0,.4.032c1.428,0,2.3-1.261,3.221-2.587.406-.586.854-1.219,1.39-1.854,2.509,4.054,5.058,7.436,5.176,7.6a1.219,1.219,0,0,0,1.951,0A101.343,101.343,0,0,0,61.7,52.018a16.018,16.018,0,0,1,4.233,1.93A34.078,34.078,0,0,1,36.445,70.926ZM59.2,37.752a8.512,8.512,0,0,1,2.846,6.355c0,.877-.356,2.615-2.046,5.916a90.863,90.863,0,0,1-6.487,10.306c-1.147-1.6-3.121-4.435-4.887-7.417a45.075,45.075,0,0,1-2.633-5.075,10.161,10.161,0,0,1-1.013-3.73,8.543,8.543,0,0,1,8.533-8.533q.4,0,.785.036a8.458,8.458,0,0,1,4.9,2.143Zm11.337.7A33.584,33.584,0,0,1,67.1,51.8,18.541,18.541,0,0,0,62.822,49.8a14.443,14.443,0,0,0,1.661-5.7,11.018,11.018,0,0,0-6.14-9.852l-.077-.034c-.273-.132-.549-.255-.832-.365-.194-.076-.4-.135-.594-.2-.122-.037-.232-.083-.35-.122-.314-.089-.634-.162-.955-.222h-.016c-.195-.036-.392-.056-.59-.082A10.895,10.895,0,0,0,42.54,44.107a12.55,12.55,0,0,0,1.207,4.685,44.974,44.974,0,0,0,2.309,4.54A22.471,22.471,0,0,0,43.969,56a6.346,6.346,0,0,1-1.254,1.535c-.244-.037-.7-.557-1.463-2.838a12.507,12.507,0,0,1-.513-5.371,6.521,6.521,0,0,0-.87-4.7c-1.557-2.177-4.274-2.56-6.918-2.935a17.176,17.176,0,0,0-6.166.277c-1.56.3-2.283.41-3.111-.107a4.62,4.62,0,0,1-1.926-4.673c.326-.975,1.3-1.327,3.292-1.981a23.4,23.4,0,0,0,7.242-3.519c1.776-1.3,6.461-4.761,6.6-9.478.078-2.581-1.213-4.173-2.461-5.713a10.543,10.543,0,0,1-2.448-4.358c-.648-2.716.155-5.9,2.331-9.471h.14a34.215,34.215,0,0,1,18.865,5.7,7.323,7.323,0,0,1-2.3,1.72,5.458,5.458,0,0,1-2.7.423,5.113,5.113,0,0,0-3.623.932c-2.764,2.081-4,7.388-1.518,11.373,1.768,2.824,4.789,3.483,8.088,4.2a12.763,12.763,0,0,0,5.383-.023A9.2,9.2,0,0,1,62.964,27a13.582,13.582,0,0,1,4.426,2.215,9.982,9.982,0,0,1,3.027,4.323c.1,1.077.162,2.157.162,3.254,0,.545-.011,1.1-.048,1.662Zm0,0" transform="translate(0 0)" fill="#fff"/><path d="M84.314,41.983a4.876,4.876,0,1,0-4.876-4.876A4.876,4.876,0,0,0,84.314,41.983Zm0-7.314a2.438,2.438,0,1,1-2.438,2.438A2.438,2.438,0,0,1,84.314,34.669Zm0,0" transform="translate(-67.374 -27.133)" fill="#fff"/><path d="M319.438,253.106a4.876,4.876,0,1,0,4.876-4.876A4.876,4.876,0,0,0,319.438,253.106Zm7.314,0a2.438,2.438,0,1,1-2.438-2.438A2.438,2.438,0,0,1,326.752,253.106Zm0,0" transform="translate(-270.802 -210.218)" fill="#fff"/></g></svg>