<svg xmlns="http://www.w3.org/2000/svg" width="157.046" height="175.982" viewBox="0 0 157.046 175.982"><g transform="translate(2424 -5872)"><path d="M199.557,399.915c-.184-.415.369-.738.553-.692.092,0,.231.046.323.046h.046a1.015,1.015,0,0,1,.369-.046l.83-.138a10.725,10.725,0,0,1,1.706-.184,1.192,1.192,0,0,1,.968.784c.092.415-.277.553-.553.553C202.6,400.191,200.248,401.436,199.557,399.915Z" transform="translate(-2565.33 5568.055)" fill="#fff"/><path d="M195.24,404.754c-.231-.461.369-.784.646-.738a1.347,1.347,0,0,1,.415.092h.046a1.277,1.277,0,0,1,.415-.046l.968-.138c.646-.092,4.289-.184,4.935-.138a1.555,1.555,0,0,1,1.153.922c.138.461-.323.6-.646.6C201.742,405.123,196.116,406.46,195.24,404.754Z" transform="translate(-2562.996 5565.429)" fill="#fff"/><path d="M204.293,419.174c-.184-.968-.738-.692-2.029-.692-.138,0-.922.092-1.2.138.092-.6.184-.415.323-1.015a1.074,1.074,0,0,0-.553-.922,3,3,0,0,0,1.522-.507c1.752-1.107,1.568-3.6.184-4.935-1.568-1.522-4.381-2.121-6.18-.692-.277.231-.138.553.184.876a2.764,2.764,0,0,0-.046,3.274,5.166,5.166,0,0,0,2.167,1.614v.092c-.138.922-.323,1.015-.461,1.937a1.015,1.015,0,0,0,.046.369c-.461,0-.968,0-1.43.046-.6,0-.738.461-.415.922a2.581,2.581,0,0,0,1.937.83c1.291-.046,2.583-.046,3.874-.092C202.955,420.327,204.477,420.281,204.293,419.174Zm-4.2-4.658a1.5,1.5,0,0,1-1.061.369v-.046a1.755,1.755,0,0,1-.231-.692,2.138,2.138,0,0,1,1.245-2.168c.323-.138.369-.323.277-.553.092,0,.138.046.138,0a1.385,1.385,0,0,1,.277.507A2.32,2.32,0,0,1,200.1,414.517Z" transform="translate(-2563.425 5562.215)" fill="#fff"/><path d="M215.8,413.516c.231-4.2.968-13.236,1.015-13.881.092-1.107,2.859-.092,2.813.83-.184,2.26-.323,4.566-.507,6.825h.046c.046,0,.046,0,.092-.046s.184-.138.231-.184c.369-.507,1.153-.231,1.66-.046a2.954,2.954,0,0,1,.876.6c.092.092.323.461.184.646a2.7,2.7,0,0,1-3.182.553c-.138,1.937-.231,2.214-.369,4.151a.835.835,0,0,1,.369.83,1.331,1.331,0,0,1-.6.876C217.828,415.176,215.753,414.392,215.8,413.516Z" transform="translate(-2574.102 5567.919)" fill="#fff"/><path d="M238.223,406.9a4.915,4.915,0,0,0-5.027-2.306h-.138c-.046,0-.092.046-.138.046a3.033,3.033,0,0,0-1.706,3.782c.692,1.983,3.367,3,5.3,2.444A2.617,2.617,0,0,0,238.223,406.9Zm-3.782,2.352c-.046,0-.184.046-.369.092a3.658,3.658,0,0,0-.184-.415,3.045,3.045,0,0,1-.046-.646,2.185,2.185,0,0,1,1.291-1.937h.184c.092.277.369.461.461.784A1.8,1.8,0,0,1,234.442,409.253Z" transform="translate(-2582.322 5565.035)" fill="#fff"/><path d="M247.494,403.472c-.138-1.015,2.675-.138,2.767.83a90.751,90.751,0,0,1,.692,12.267c0,1.061-2.813.092-2.813-.83A91.514,91.514,0,0,0,247.494,403.472Z" transform="translate(-2591.177 5565.835)" fill="#fff"/><path d="M260.4,403.151c-.461-.415-.646-.876.184-.968a27.4,27.4,0,0,1,6.733.046c.553.046,1.568.461,1.752,1.061s-.369.738-.876.646a25.705,25.705,0,0,0-4.981-.138v.277l-.415,1.245a6.735,6.735,0,0,0,3.551-.461c.83-.323,3.274,1.2,2.075,1.706a8.944,8.944,0,0,1-5.9.231v.092a7.436,7.436,0,0,0,0,1.015c.184,0,.323-.046.507-.046,1.983-.184,3.966-.323,5.949-.507.876-.092,3.182,1.614,1.522,1.752-1.8.138-3.6.323-5.4.461a6.359,6.359,0,0,1-3.828-.369C259.013,407.9,259.659,405.18,260.4,403.151Z" transform="translate(-2597.762 5566.386)" fill="#fff"/><path d="M277.894,422.605c-.83-2.214-3.6-2.859-5.719-2.905a.538.538,0,0,0-.6.415,2.025,2.025,0,0,0-1.752,2.536c.415,2.029,2.859,3.182,4.75,3.182C276.372,425.834,278.724,424.773,277.894,422.605Zm-4.058,1.384c-2.168.507-1.015-2.444-.323-2.26.323.092,1.015.231,1.245-.138a.9.9,0,0,1,.553.876C275.312,423.343,274.574,423.8,273.836,423.989Z" transform="translate(-2603.177 5556.847)" fill="#fff"/><path d="M283.8,401.372c-.092-1.015,2.675-.138,2.813.83a40.114,40.114,0,0,1,.138,5.765c-.046,1.107-2.813.092-2.767-.83A48.148,48.148,0,0,0,283.8,401.372Z" transform="translate(-2610.74 5566.967)" fill="#fff"/><g transform="translate(-2424 5872)"><path d="M284.8,458.1a7.705,7.705,0,0,0-6.549,11.76h2.168v-.369a4.473,4.473,0,1,1,8.947,0v.369H291.4a7.582,7.582,0,0,0,1.153-4.058A7.785,7.785,0,0,0,284.8,458.1Z" transform="translate(-183.133 -335.844)" fill="#fff"/><path d="M224.8,502.2v.507c0,5.3,3.32,9.638,7.425,9.638s7.425-4.289,7.425-9.638V502.2Z" transform="translate(-154.952 -359.606)" fill="#fff"/><path d="M180.4,458.1a7.705,7.705,0,0,0-6.549,11.76h1.983v-.369a4.473,4.473,0,1,1,8.947,0v.369h2.26A7.582,7.582,0,0,0,188.2,465.8,7.8,7.8,0,0,0,180.4,458.1Z" transform="translate(-126.879 -335.844)" fill="#fff"/><path d="M237.638,252.981l.369,8.578.415,8.578c.323,5.719.646,11.437,1.061,17.109a.218.218,0,0,0,.231.231.258.258,0,0,0,.277-.231c.415-5.719.738-11.437,1.061-17.109l.415-8.578.369-8.578c.092-2.859.323-5.718.507-8.578a76.046,76.046,0,0,0,.046-8.578c-.138-2.859-.415-5.718-.784-8.578a62.331,62.331,0,0,0-1.614-8.578.36.36,0,0,0-.184-.184.262.262,0,0,0-.323.184,70.107,70.107,0,0,0-1.614,8.578c-.369,2.859-.6,5.719-.784,8.578a76.032,76.032,0,0,0,.046,8.578C237.315,247.263,237.5,250.122,237.638,252.981Z" transform="translate(-161.518 -206.726)" fill="#fff"/><path d="M203.845,400.237c-1.245-.092-3.6,1.2-4.289-.323-.184-.415.369-.738.553-.692.092,0,.231.046.323.046h.046a1.015,1.015,0,0,1,.369-.046l.83-.138a10.722,10.722,0,0,1,1.706-.184,1.192,1.192,0,0,1,.968.784C204.537,400.145,204.122,400.284,203.845,400.237Z" transform="translate(-141.33 -303.945)" fill="#fff"/><path d="M203.172,405.261c-1.43-.138-7.056,1.2-7.932-.507-.231-.461.369-.784.646-.738a1.347,1.347,0,0,1,.415.092h.046a1.277,1.277,0,0,1,.415-.046l.968-.138c.646-.092,4.289-.184,4.935-.138a1.555,1.555,0,0,1,1.153.922C203.956,405.169,203.495,405.308,203.172,405.261Z" transform="translate(-138.996 -306.571)" fill="#fff"/><path d="M222.109,408.359a2.7,2.7,0,0,1-3.182.553c-.138,1.937-.231,2.214-.369,4.151a.834.834,0,0,1,.369.83,1.331,1.331,0,0,1-.6.876c-.6.461-2.675-.323-2.629-1.153.231-4.2.968-13.236,1.015-13.881.092-1.107,2.859-.092,2.813.83-.184,2.26-.323,4.566-.507,6.825h.046c.046,0,.046,0,.092-.046s.184-.138.231-.184c.369-.507,1.153-.231,1.66-.046a2.954,2.954,0,0,1,.876.6C222.017,407.805,222.248,408.174,222.109,408.359Z" transform="translate(-150.048 -304.134)" fill="#fff"/><path d="M204.293,419.174c-.184-.968-.738-.692-2.029-.692-.138,0-.922.092-1.2.138.092-.6.184-.415.323-1.015a1.074,1.074,0,0,0-.553-.922,3,3,0,0,0,1.522-.507c1.752-1.107,1.568-3.6.184-4.935-1.568-1.522-4.381-2.121-6.18-.692-.277.231-.138.553.184.876a2.764,2.764,0,0,0-.046,3.274,5.166,5.166,0,0,0,2.167,1.614v.092c-.138.922-.323,1.015-.461,1.937a1.015,1.015,0,0,0,.046.369c-.461,0-.968,0-1.43.046-.6,0-.738.461-.415.922a2.581,2.581,0,0,0,1.937.83c1.291-.046,2.583-.046,3.874-.092C202.955,420.327,204.477,420.281,204.293,419.174Zm-4.2-4.658a1.5,1.5,0,0,1-1.061.369v-.046a1.755,1.755,0,0,1-.231-.692,2.138,2.138,0,0,1,1.245-2.168c.323-.138.369-.323.277-.553.092,0,.138.046.138,0a1.385,1.385,0,0,1,.277.507A2.32,2.32,0,0,1,200.1,414.517Z" transform="translate(-139.425 -309.785)" fill="#fff"/><path d="M238.223,406.9a4.915,4.915,0,0,0-5.027-2.306h-.138c-.046,0-.092.046-.138.046a3.033,3.033,0,0,0-1.706,3.782c.692,1.983,3.367,3,5.3,2.444A2.617,2.617,0,0,0,238.223,406.9Zm-3.782,2.352c-.046,0-.184.046-.369.092a3.658,3.658,0,0,0-.184-.415,3.045,3.045,0,0,1-.046-.646,2.185,2.185,0,0,1,1.291-1.937h.184c.092.277.369.461.461.784A1.8,1.8,0,0,1,234.442,409.253Z" transform="translate(-158.322 -306.965)" fill="#fff"/><path d="M251,416.569c0,1.061-2.813.092-2.813-.83a98.937,98.937,0,0,0-.692-12.267c-.138-1.015,2.675-.138,2.767.83A99.514,99.514,0,0,1,251,416.569Z" transform="translate(-167.177 -306.165)" fill="#fff"/><path d="M270.448,409c-1.8.138-3.6.323-5.4.461a6.359,6.359,0,0,1-3.828-.369c-2.306-1.245-1.66-3.966-.922-6.041-.461-.415-.646-.876.184-.968a27.4,27.4,0,0,1,6.733.046c.553.046,1.568.461,1.752,1.061s-.369.738-.876.646a25.705,25.705,0,0,0-4.981-.138v.277l-.415,1.245a6.735,6.735,0,0,0,3.551-.461c.83-.323,3.274,1.2,2.075,1.706a8.944,8.944,0,0,1-5.9.231v.092a7.441,7.441,0,0,0,0,1.015c.184,0,.323-.046.507-.046,1.983-.184,3.966-.323,5.949-.507C269.8,407.156,272.108,408.862,270.448,409Z" transform="translate(-173.714 -305.56)" fill="#fff"/><path d="M286.7,407.966c-.046,1.107-2.813.092-2.767-.83a40.118,40.118,0,0,0-.138-5.765c-.092-1.015,2.675-.138,2.813.83A47.951,47.951,0,0,1,286.7,407.966Z" transform="translate(-186.74 -305.033)" fill="#fff"/><path d="M277.894,422.605c-.83-2.214-3.6-2.859-5.719-2.905a.538.538,0,0,0-.6.415,2.025,2.025,0,0,0-1.752,2.536c.415,2.029,2.859,3.182,4.75,3.182C276.372,425.834,278.724,424.773,277.894,422.605Zm-4.058,1.384c-2.168.507-1.015-2.444-.323-2.26.323.092,1.015.231,1.245-.138a.9.9,0,0,1,.553.876C275.312,423.343,274.574,423.8,273.836,423.989Z" transform="translate(-179.177 -315.153)" fill="#fff"/><path d="M223.8,323.834c-10.284,0-17.8-2.306-22.321-6.871a14.306,14.306,0,0,1-4.243-9.131V293.166h0v-4.75c16.694-8.67,25.918-16.141,29.008-23.52a52.8,52.8,0,0,0,3.182-30.437c-1.845-9.362-6.134-16.279-11.437-18.493a26.946,26.946,0,0,0-10.422-2.075,21.817,21.817,0,0,0-10.837-9.316c-5.534-2.029-11.852-1.43-18.723,1.752a45.951,45.951,0,0,0-4.981-4.888,35.531,35.531,0,0,0-20.291-8.347V193a10.032,10.032,0,0,0-1.2.046c-.415,0-.83-.046-1.2-.046v.092a35.657,35.657,0,0,0-20.291,8.347,38.049,38.049,0,0,0-4.335,4.151c-6.226-2.536-11.944-2.905-17.063-1.061a21.431,21.431,0,0,0-10.837,9.362,26.933,26.933,0,0,0-12.083,1.983c-5.3,2.214-9.546,9.131-11.437,18.493A53.1,53.1,0,0,0,77.473,264.8c3.044,7.286,12.083,14.665,28.408,23.2v35.372a45.619,45.619,0,0,0,89.329,13.051c7.932,8.347,27.117,8.947,28.131,8.947l3.5.092-6-12.405,7.1-9.316H223.8Zm-7.425-103.763c3.782,1.614,7.24,7.563,8.716,15.173a47.9,47.9,0,0,1-2.951,27.809c-2.306,5.488-9.408,11.529-21.629,18.4a84.675,84.675,0,0,0,3.735-9.316c.507-1.522.968-3,1.383-4.473l.277-.277c.046-.046.046-.046.046-.092a.238.238,0,0,0-.138-.323c2.767-10.653,2.951-20.707.461-29.33a40.6,40.6,0,0,0-9.177-16.279,31.23,31.23,0,0,1,6.779-2.675A22.934,22.934,0,0,1,216.377,220.071Zm-21.122-11.3a16.679,16.679,0,0,1,7.333,5.58,37.543,37.543,0,0,0-8.9,3.689,57.476,57.476,0,0,0-12.267-8.209C186.586,207.665,191.243,207.342,195.256,208.772Zm-84.855,0c3.643-1.337,7.84-1.153,12.452.507l-.046.046a58.968,58.968,0,0,0-12.913,8.439,42.094,42.094,0,0,0-7.1-3.09A17.209,17.209,0,0,1,110.4,208.772ZM81.808,263.1a48.746,48.746,0,0,1-2.951-27.809c1.522-7.655,4.935-13.6,8.716-15.172a23,23,0,0,1,12.544-1.384,31.014,31.014,0,0,1,6.364,2.444,41.1,41.1,0,0,0-9.408,16.51c-2.905,10.007-2.214,21.952,1.983,34.5a93.413,93.413,0,0,0,3.5,8.854C90.893,274.35,84.067,268.493,81.808,263.1Zm110.957,49.53s-.184,14.85-.6,17.663a41.1,41.1,0,0,1-81.627-6.871V309.953h82.18v2.675Zm0-26.194v3.182h0v16.049H110.539V286.433l-.046-.046h82.273Zm2.4-4.289H108.141a87.12,87.12,0,0,1-4.888-11.806c.646.277,1.245.553,1.891.784a10.381,10.381,0,0,0,1.614.415c.553.092,1.107.138,1.66.184,1.107,0,2.26,0,3.367.046s2.214.046,3.367.046c1.107-.046,2.214-.092,3.367-.184a52.856,52.856,0,0,0,6.595-.968.2.2,0,0,0,.184-.184c0-.138-.092-.277-.184-.277h0c-.553-.092-1.107-.138-1.614-.231l-.83-.092-.83-.138c-.553-.092-1.061-.138-1.614-.231l-1.614-.277-.784-.138-.784-.138-1.568-.323c-1.061-.231-2.121-.415-3.136-.646-1.061-.231-2.075-.6-3.09-.922a9.335,9.335,0,0,0-1.522-.415,9.088,9.088,0,0,0-1.568-.184c-.553-.046-1.061-.046-1.614-.046s-1.107,0-1.66.046c-.231,0-.507.046-.738.046-2.214-8.163-3.367-17.893-.738-27.209a19.279,19.279,0,0,0,1.983,2.306,14.352,14.352,0,0,0,1.291,1.061,14.789,14.789,0,0,0,1.43.876c1.015.507,2.029.968,3.044,1.476.968.507,1.983,1.015,3,1.476,1.015.415,2.029.876,3.09,1.245a53.086,53.086,0,0,0,6.364,1.937.339.339,0,0,0,.277-.092.223.223,0,0,0-.046-.323h0c-.461-.323-.922-.6-1.384-.876l-.692-.415-.692-.461c-.461-.323-.922-.6-1.337-.922l-1.337-.922-.646-.461-.646-.461-1.291-.968c-.876-.646-1.706-1.291-2.536-1.937s-1.614-1.43-2.4-2.121a15.46,15.46,0,0,0-2.583-1.891,13.9,13.9,0,0,0-1.43-.738,15.07,15.07,0,0,0-1.522-.646c-.277-.092-.553-.231-.83-.323,3.32-8.578,9.777-15.634,19.323-20.983a13.8,13.8,0,0,0,.784,3.09,9.058,9.058,0,0,0,.692,1.522,9.432,9.432,0,0,0,.922,1.43c.692.922,1.383,1.752,2.075,2.675.646.922,1.337,1.8,2.029,2.675.738.83,1.43,1.706,2.214,2.536a50.721,50.721,0,0,0,4.842,4.612.305.305,0,0,0,.277.046c.138-.046.138-.231.092-.323h0c-.277-.461-.553-.968-.83-1.43l-.415-.692-.415-.692c-.277-.461-.553-.922-.83-1.43l-.784-1.43-.369-.692-.369-.738-.738-1.43c-.461-.968-.968-1.937-1.43-2.905s-.83-1.983-1.2-3a14.249,14.249,0,0,0-.646-1.476,10.981,10.981,0,0,0-.83-1.384,13.462,13.462,0,0,0-.968-1.291c-.323-.415-.692-.83-1.061-1.245l.553-.277.6-.277.369-.553c.092-.138,8.947-14.112,25.41-14.757a30.534,30.534,0,0,1,18.447,7.286,34.115,34.115,0,0,1,6.871,7.471l.369.553.6.277c.6.277,1.2.6,1.8.876-.184.231-.323.415-.507.646-.323.415-.646.876-.968,1.291a13.719,13.719,0,0,0-.83,1.383,14.248,14.248,0,0,0-.646,1.476c-.369,1.015-.738,2.029-1.2,3s-.922,1.937-1.43,2.905l-.738,1.43-.369.738-.415.553-.784,1.43c-.277.461-.553.922-.83,1.43l-.415.692-.415.692c-.277.461-.553.922-.83,1.43h0a.217.217,0,0,0,.046.277.228.228,0,0,0,.323.046,50.719,50.719,0,0,0,4.842-4.612c.784-.83,1.476-1.66,2.214-2.536.692-.876,1.383-1.752,2.029-2.675s1.383-1.752,2.075-2.675a15.149,15.149,0,0,0,.922-1.43c.277-.507.461-1.015.692-1.522a16.675,16.675,0,0,0,.6-2.167c8.854,5.35,14.9,12.267,17.939,20.66-.277.138-.553.231-.83.369a13.9,13.9,0,0,0-1.43.738,13.357,13.357,0,0,0-1.337.876c-.415.323-.83.646-1.245,1.015-.784.738-1.568,1.476-2.4,2.121s-1.706,1.291-2.536,1.937l-1.291.968-.646.461-.646.461-1.337.922a13.728,13.728,0,0,0-1.337.922l-.692.461-.692.415c-.461.277-.922.6-1.383.876h0a.205.205,0,0,0-.092.277c.046.138.184.231.277.184a50.648,50.648,0,0,0,6.364-1.937c1.061-.369,2.075-.83,3.09-1.245,1.015-.461,2.029-.922,3-1.476,1.015-.507,2.029-.968,3.044-1.476a14.789,14.789,0,0,0,1.43-.876,14.352,14.352,0,0,0,1.291-1.061,8.851,8.851,0,0,0,.646-.692c2.029,8.762.922,17.8-1.153,25.457h-.692c-.553,0-1.061.046-1.614.046-.553.046-1.061.092-1.568.184a9.337,9.337,0,0,0-1.522.415c-1.015.323-2.029.692-3.09.922s-2.075.461-3.136.646l-1.568.323-.784.138-.784.138-1.614.277c-.553.092-1.061.138-1.614.231l-.83.138-.83.092c-.553.092-1.107.138-1.614.231h0a.2.2,0,0,0-.184.184.2.2,0,0,0,.184.277,52.855,52.855,0,0,0,6.595.968c1.107.092,2.214.138,3.367.184,1.107,0,2.214,0,3.367-.046,1.107-.046,2.26,0,3.367-.046.553-.046,1.107-.092,1.66-.184.507-.092,1.015-.231,1.522-.369A98.24,98.24,0,0,1,195.163,282.144Zm14.25,56.908a27.329,27.329,0,0,1-9.362-4.151,9.1,9.1,0,0,1-3.32-4.2,47.55,47.55,0,0,0,.6-7.286v-4.8a8.977,8.977,0,0,0,1.107,1.2c4.658,4.8,11.806,7.517,21.214,8.117L216.1,332.6l4.012,8.3A62.041,62.041,0,0,1,209.413,339.052Z" transform="translate(-73.341 -193)" fill="#fff"/></g></g></svg>