<svg xmlns="http://www.w3.org/2000/svg" width="71.7" height="71.699" viewBox="0 0 71.7 71.699"><path d="M64.426,14.32a16.819,16.819,0,0,1,1.7,7.968q0,10.837-9.125,17.474T31.5,46.4H28.942a4.6,4.6,0,0,0-4.276,3.352L21.6,62.836A4.587,4.587,0,0,1,17.325,66.2h-5.59l-.5,2.138a2.634,2.634,0,0,0,2.7,3.365H22.9a4.584,4.584,0,0,0,4.271-3.361L30.24,55.254A4.6,4.6,0,0,1,34.516,51.9h2.556q16.38,0,25.5-6.637T71.7,27.789A16.843,16.843,0,0,0,70,19.822a13.488,13.488,0,0,0-4.921-5.183C64.85,14.5,64.665,14.45,64.426,14.32Zm-48.4,43.015,3.071-13.086A4.6,4.6,0,0,1,23.368,40.9h2.556q16.383,0,25.5-6.637t9.125-17.474a16.823,16.823,0,0,0-1.7-7.968,13.467,13.467,0,0,0-4.919-5.182A22.473,22.473,0,0,0,46.168.814,59.83,59.83,0,0,0,35.637,0H16.981A4.6,4.6,0,0,0,12.7,3.352L.088,57.333a2.632,2.632,0,0,0,2.7,3.361H11.75A4.588,4.588,0,0,0,16.022,57.335Zm7.316-31.322L26.03,14.554A4.6,4.6,0,0,1,30.3,11.2h2.933c3.418,0,6.009.574,7.746,1.719a5.83,5.83,0,0,1,2.607,5.25,9.626,9.626,0,0,1-4.044,8.291c-2.692,1.938-6.435,2.918-11.272,2.918H26.055A2.647,2.647,0,0,1,23.338,26.013Z" transform="translate(0 0)" fill="#fff"/></svg>