<svg xmlns="http://www.w3.org/2000/svg" xmlns:xlink="http://www.w3.org/1999/xlink" width="202.182" height="286.744" viewBox="0 0 202.182 286.744"><defs><linearGradient id="a" x1="-0.001" y1="0.499" x2="0.999" y2="0.499" gradientUnits="objectBoundingBox"><stop offset="0.001" stop-color="#36bbdd"/><stop offset="0.067" stop-color="#4cc3e1"/><stop offset="0.245" stop-color="#82d5ea"/><stop offset="0.42" stop-color="#afe4f1"/><stop offset="0.586" stop-color="#d2f0f7"/><stop offset="0.742" stop-color="#ebf8fc"/><stop offset="0.884" stop-color="#fafdfe"/><stop offset="1" stop-color="#fff"/></linearGradient><linearGradient id="b" y1="0.5" x2="1" y2="0.5" gradientUnits="objectBoundingBox"><stop offset="0.006" stop-color="#36bbdd"/><stop offset="0.008" stop-color="#3abcde"/><stop offset="0.03" stop-color="#63cae5"/><stop offset="0.054" stop-color="#88d7eb"/><stop offset="0.08" stop-color="#a8e2f0"/><stop offset="0.109" stop-color="#c4ebf5"/><stop offset="0.142" stop-color="#daf2f9"/><stop offset="0.18" stop-color="#ebf8fc"/><stop offset="0.228" stop-color="#f6fcfe"/><stop offset="0.294" stop-color="#fdfeff"/><stop offset="0.479" stop-color="#fff"/><stop offset="0.682" stop-color="#fdfeff"/><stop offset="0.756" stop-color="#f6fcfe"/><stop offset="0.808" stop-color="#ebf8fc"/><stop offset="0.85" stop-color="#daf2f9"/><stop offset="0.887" stop-color="#c4ebf5"/><stop offset="0.919" stop-color="#a8e2f0"/><stop offset="0.948" stop-color="#88d7eb"/><stop offset="0.974" stop-color="#63cae5"/><stop offset="0.998" stop-color="#3abcde"/><stop offset="1" stop-color="#36bbdd"/></linearGradient><linearGradient id="c" x1="0.5" x2="0.5" y2="1" gradientUnits="objectBoundingBox"><stop offset="0.001" stop-color="#c1272d"/><stop offset="0.146" stop-color="#cc514b"/><stop offset="0.366" stop-color="#dc8b73"/><stop offset="0.569" stop-color="#e8b893"/><stop offset="0.749" stop-color="#f1d9aa"/><stop offset="0.899" stop-color="#f6edb8"/><stop offset="1" stop-color="#f8f4bd"/></linearGradient></defs><g transform="translate(-874 -3965)"><g transform="translate(968 3965)"><g transform="translate(36)"><g transform="translate(0)"><path d="M72.091,0C52.189,0,36,15.789,36,35.41A35.146,35.146,0,0,0,50.581,63.846V80.713a3.281,3.281,0,0,0,5.5,2.415L69.558,70.733c.848.058,1.7.088,2.533.088,19.9,0,36.091-15.789,36.091-35.41C108.182,15.77,91.976,0,72.091,0Zm0,64.259a30.74,30.74,0,0,1-3.33-.183,3.277,3.277,0,0,0-2.578.847l-9.04,8.315V62.127a3.281,3.281,0,0,0-1.482-2.744,28.657,28.657,0,0,1-13.1-23.972c0-15.907,13.247-28.848,29.529-28.848S101.62,19.5,101.62,35.41,88.373,64.259,72.091,64.259Z" transform="translate(-36)" fill="#ff4316"/></g></g><g transform="translate(58.967 16.221)"><path d="M190.765,98.877H179.281a3.281,3.281,0,1,0,0,6.562h11.484a4.922,4.922,0,0,1,0,9.843h-3.281a3.281,3.281,0,0,0-3.281,3.281v4.724a3.281,3.281,0,1,0,6.562,0v-1.442a11.484,11.484,0,0,0,0-22.967Z" transform="translate(-176 -98.877)" fill="#ff4316"/></g><g transform="translate(66.021 47.929)"><g transform="translate(0)"><circle cx="4.429" cy="4.429" r="4.429" fill="#ff4316"/></g></g></g><g transform="translate(630.664 3976)"><g transform="translate(243.336 83)"><path d="M658.85,492.548c.128.416,10.745,15.478,30.541,14.775l-5.437,7.451,5.6,11.769S654.564,524.529,657.6,507.9C660.576,491.237,658.85,492.548,658.85,492.548Z" transform="translate(-524.992 -361.558)" fill="url(#a)"/><rect width="93.51" height="26.448" transform="translate(38.301 100.162)" fill="url(#b)"/><path d="M414.226,128.316c-2.015-10.234-6.716-17.813-12.5-20.243a28.987,28.987,0,0,0-11.417-2.271,23.5,23.5,0,0,0-11.865-10.17c-6.076-2.239-12.952-1.567-20.467,1.951a46.186,46.186,0,0,0-5.469-5.341A38.986,38.986,0,0,0,330.31,83.1V83c-.448,0-.9,0-1.343.032-.448,0-.9-.032-1.343-.032v.1a39.116,39.116,0,0,0-22.194,9.146,47.464,47.464,0,0,0-4.765,4.541c-6.812-2.814-13.08-3.2-18.676-1.151a23.668,23.668,0,0,0-11.9,10.234,28.956,28.956,0,0,0-13.208,2.207c-5.788,2.43-10.489,10.01-12.5,20.243a57.825,57.825,0,0,0,3.518,33.355c3.358,7.963,13.24,16.054,31.085,25.392v38.728a49.945,49.945,0,0,0,97.188,16.214v-3.1h1.279V227.294h1.279v-22.77h.128V192.66h.032v-5.213c18.293-9.5,28.4-17.685,31.788-25.776A57.838,57.838,0,0,0,414.226,128.316ZM373.963,185.3v3.486h-.032v17.557H283.939V185.3l-.032-.064H374Z" transform="translate(-243.336 -83)" fill="url(#c)"/><path d="M501.892,161.159l.384,9.37.48,9.37c.352,6.236.7,12.5,1.151,18.74,0,.128.128.224.256.256a.311.311,0,0,0,.32-.256c.448-6.236.8-12.5,1.151-18.74l.48-9.37.384-9.37c.128-3.134.352-6.236.544-9.37a83.272,83.272,0,0,0,.032-9.37c-.16-3.134-.448-6.236-.863-9.37a74.223,74.223,0,0,0-1.759-9.37.28.28,0,0,0-.224-.192.3.3,0,0,0-.352.192,74.228,74.228,0,0,0-1.759,9.37c-.416,3.134-.672,6.236-.863,9.37a83.272,83.272,0,0,0,.032,9.37C501.541,154.923,501.764,158.025,501.892,161.159Z" transform="translate(-418.692 -110.535)" fill="#573724"/><path d="M407.958,226.239c-11.289,0-19.508-2.526-24.433-7.547a15.528,15.528,0,0,1-4.637-10.01V192.628h.032v-5.213c18.293-9.5,28.4-17.685,31.788-25.776a58.36,58.36,0,0,0,3.518-33.355c-2.015-10.234-6.716-17.813-12.5-20.243a28.987,28.987,0,0,0-11.417-2.271A23.5,23.5,0,0,0,378.44,95.6c-6.076-2.239-12.952-1.567-20.467,1.951A46.185,46.185,0,0,0,352.5,92.21a38.986,38.986,0,0,0-22.194-9.146V83c-.448,0-.9,0-1.343.032-.448,0-.9-.032-1.343-.032v.1a39.116,39.116,0,0,0-22.194,9.146,47.463,47.463,0,0,0-4.765,4.541c-6.812-2.814-13.08-3.2-18.676-1.151a23.668,23.668,0,0,0-11.9,10.234,28.956,28.956,0,0,0-13.208,2.207c-5.788,2.43-10.489,10.01-12.5,20.243a57.825,57.825,0,0,0,3.518,33.355c3.358,7.963,13.24,16.054,31.085,25.392v38.728a49.959,49.959,0,0,0,97.827,14.3c8.667,9.114,29.678,9.786,30.8,9.818l3.838.1-6.556-13.592,7.771-10.2h-4.7ZM399.8,112.646c4.157,1.759,7.9,8.283,9.562,16.63a52.876,52.876,0,0,1-3.2,30.477c-2.526,6.044-10.3,12.632-23.7,20.147a93.955,93.955,0,0,0,4.061-10.2c.544-1.663,1.055-3.294,1.5-4.925l.288-.288a.166.166,0,0,0,.064-.128.355.355,0,0,0-.128-.352c3.038-11.673,3.23-22.674.48-32.108a44.7,44.7,0,0,0-10.074-17.845,34.356,34.356,0,0,1,7.419-2.91A24.593,24.593,0,0,1,399.8,112.646ZM376.682,100.3a17.78,17.78,0,0,1,8,6.108,40.8,40.8,0,0,0-9.722,4.061,62.436,62.436,0,0,0-13.4-8.986C367.215,99.086,372.3,98.7,376.682,100.3Zm-92.934,0c4-1.439,8.6-1.247,13.655.576,0,.032-.032.032-.032.064a63.254,63.254,0,0,0-14.135,9.274,44.566,44.566,0,0,0-7.8-3.39A18.012,18.012,0,0,1,283.747,100.3Zm-31.277,59.451a52.876,52.876,0,0,1-3.2-30.477c1.663-8.347,5.4-14.871,9.562-16.63a24.561,24.561,0,0,1,13.719-1.5,33.021,33.021,0,0,1,6.972,2.686,44.827,44.827,0,0,0-10.3,18.069c-3.2,10.937-2.43,24.017,2.175,37.8a98.822,98.822,0,0,0,3.838,9.69C262.417,172.1,254.933,165.637,252.471,159.752ZM373.963,213.99s-.192,16.246-.64,19.348a44.995,44.995,0,0,1-89.352-7.547V211.048h89.992Zm0-28.686v3.486h-.032v17.557H283.939V185.3l-.032-.064H374Zm2.622-4.733h-95.3a96.426,96.426,0,0,1-5.373-12.952c.672.32,1.375.608,2.079.863a11.281,11.281,0,0,0,1.791.448,17.616,17.616,0,0,0,1.823.192c1.247.032,2.462,0,3.71.032,1.215.064,2.462.032,3.678.032,1.215-.064,2.431-.064,3.646-.192a54.663,54.663,0,0,0,7.228-1.055.239.239,0,0,0,.192-.224.224.224,0,0,0-.224-.288h0c-.608-.1-1.183-.16-1.791-.224l-.9-.1-.9-.128c-.576-.1-1.183-.16-1.759-.256l-1.759-.32-.863-.16-.863-.16-1.727-.32c-1.151-.256-2.3-.448-3.454-.736a31.579,31.579,0,0,1-3.39-.991,14.647,14.647,0,0,0-1.695-.448,15.949,15.949,0,0,0-1.727-.224c-.576-.032-1.183-.064-1.759-.064a17.667,17.667,0,0,0-1.823.064c-.256.032-.544.032-.831.064-2.43-8.922-3.678-19.572-.831-29.773a18.648,18.648,0,0,0,2.207,2.526,16.214,16.214,0,0,0,1.407,1.183,15.807,15.807,0,0,0,1.567.959c1.119.544,2.239,1.055,3.326,1.6,1.087.576,2.207,1.087,3.294,1.6,1.119.48,2.239.959,3.39,1.375a58.517,58.517,0,0,0,6.972,2.143.322.322,0,0,0,.288-.1.25.25,0,0,0-.064-.352h0c-.512-.32-1.023-.64-1.5-.991l-.768-.48-.736-.512c-.48-.352-.991-.672-1.471-.991l-1.439-1.023-.736-.512-.7-.544-1.439-1.055c-.927-.7-1.887-1.407-2.814-2.143-.927-.7-1.759-1.567-2.622-2.335a11.327,11.327,0,0,0-1.343-1.119,10.279,10.279,0,0,0-1.471-.927,14.439,14.439,0,0,0-1.567-.8c-.544-.256-1.087-.512-1.663-.736-.32-.128-.608-.224-.927-.352,3.614-9.4,10.713-17.109,21.139-22.962a19.446,19.446,0,0,0,.832,3.39,15.95,15.95,0,0,0,.736,1.695,16.118,16.118,0,0,0,.991,1.567c.736.991,1.535,1.951,2.239,2.942s1.471,1.951,2.239,2.91c.8.927,1.567,1.887,2.4,2.75a56.267,56.267,0,0,0,5.277,5.053.243.243,0,0,0,.288.032.257.257,0,0,0,.1-.352h0c-.288-.512-.608-1.023-.927-1.567l-.48-.768-.448-.768c-.288-.512-.576-1.023-.9-1.535L307.6,120.9l-.416-.768-.416-.8-.8-1.567c-.512-1.055-1.055-2.111-1.535-3.166-.512-1.055-.9-2.175-1.311-3.262a10.123,10.123,0,0,0-.7-1.6,10.343,10.343,0,0,0-.9-1.5c-.32-.48-.672-.959-1.023-1.439a15.422,15.422,0,0,0-1.151-1.375,3.644,3.644,0,0,0,.608-.32l.64-.32.384-.608c.1-.16,9.786-15.478,27.823-16.182a33.3,33.3,0,0,1,20.211,8,38.518,38.518,0,0,1,7.547,8.187l.384.608.64.32c.672.32,1.311.64,1.951.991-.192.224-.384.48-.576.7-.384.48-.7.959-1.023,1.439a14.245,14.245,0,0,0-1.6,3.1c-.416,1.087-.8,2.239-1.311,3.262-.48,1.055-1.023,2.111-1.535,3.166l-.8,1.567-.416.8-.416.768-.831,1.567c-.288.512-.608,1.023-.9,1.535l-.448.768-.48.768c-.288.512-.608,1.023-.927,1.567h0a.238.238,0,0,0,.032.288.291.291,0,0,0,.384.032,52.447,52.447,0,0,0,5.277-5.053c.832-.9,1.631-1.823,2.4-2.75.767-.959,1.535-1.919,2.239-2.91.736-.991,1.5-1.951,2.239-2.942a16.118,16.118,0,0,0,.991-1.567,15.944,15.944,0,0,0,.736-1.695c.256-.768.48-1.567.672-2.367,9.722,5.852,16.31,13.432,19.636,22.61a7.658,7.658,0,0,0-.9.416c-.544.256-1.055.544-1.567.8-.512.288-.991.608-1.471.927a11.329,11.329,0,0,0-1.343,1.119c-.863.8-1.695,1.631-2.622,2.335-.927.736-1.855,1.407-2.814,2.143l-1.439,1.055-.7.544-.736.512-1.439,1.023c-.48.32-.991.64-1.471.991l-.736.512-.768.48c-.512.32-1.023.64-1.5.991h0a.243.243,0,0,0-.1.288.284.284,0,0,0,.32.192,58.516,58.516,0,0,0,6.972-2.143c1.151-.416,2.271-.927,3.39-1.375,1.087-.512,2.207-1.023,3.294-1.6,1.087-.544,2.207-1.055,3.326-1.6a12.814,12.814,0,0,0,1.567-.959,12.517,12.517,0,0,0,1.407-1.183c.256-.224.48-.48.736-.736,2.239,9.594.991,19.476-1.247,27.855h-.736c-.608,0-1.183.032-1.759.064a10.641,10.641,0,0,0-1.727.224,11.061,11.061,0,0,0-1.695.448c-1.119.352-2.239.736-3.39.991s-2.3.48-3.454.736l-1.727.32-.863.16-.863.16-1.759.32c-.576.1-1.183.16-1.759.256l-.9.128-.9.1c-.608.064-1.183.16-1.791.224h0a.269.269,0,0,0-.224.224.284.284,0,0,0,.192.32,54.663,54.663,0,0,0,7.227,1.055c1.215.128,2.43.16,3.646.192,1.215,0,2.462,0,3.678-.032s2.462,0,3.71-.032a11.756,11.756,0,0,0,1.823-.192,13.529,13.529,0,0,0,1.631-.416A72.616,72.616,0,0,1,376.586,180.571Zm15.606,62.361a30.512,30.512,0,0,1-10.266-4.541,10.164,10.164,0,0,1-3.646-4.605,50.575,50.575,0,0,0,.64-8v-5.245a15.112,15.112,0,0,0,1.183,1.311c5.117,5.245,12.92,8.219,23.25,8.89l-3.9,5.117,4.381,9.114A77.437,77.437,0,0,1,392.192,242.932Z" transform="translate(-243.336 -83)" fill="#573724"/><g transform="translate(50.114 104.936)"><path d="M490.388,416.689a3.8,3.8,0,0,0-2.654-.16,1.179,1.179,0,0,0-.863,1.631,2.561,2.561,0,0,0,.927,3.55c1.343.672,3.966.512,4.7-1.087C493.3,418.832,491.859,417.233,490.388,416.689Zm.224,3.742a1.158,1.158,0,0,1-2.079,0,2.488,2.488,0,0,1,.544-2.59c.192-.192.128-.32-.032-.448a.934.934,0,0,1,.288.064,2.493,2.493,0,0,1,.959.672A2.091,2.091,0,0,1,490.612,420.431Z" transform="translate(-458.868 -414.684)" fill="#573724" stroke="#573724" stroke-miterlimit="10" stroke-width="1"/><path d="M509.384,412.946c-.064-.672-1.951-.64-1.887-.032.192,2.3.384,4.605.544,6.908.064.672,1.951.64,1.887.032C509.767,417.551,509.575,415.248,509.384,412.946Z" transform="translate(-473.131 -412.027)" fill="#573724" stroke="#573724" stroke-miterlimit="10" stroke-width="1"/><path d="M499.6,444.024a4.78,4.78,0,0,1-.959-1.055,16.441,16.441,0,0,1-1.119-1.759.4.4,0,0,0-.256-.192c.128-.32.256-.672.416-.991.288-.64-1.567-.831-1.823-.256-.48,1.151-.927,2.3-1.311,3.486a1.928,1.928,0,0,0-.256-.256c-.448-.416-.9-.863-1.311-1.311l-.064-.064c.192-.288.352-.608.544-.9.32-.576-1.5-.831-1.823-.256a24.873,24.873,0,0,1-2.686,3.9.5.5,0,0,0-.256.192,2.807,2.807,0,0,0-.192.32c-.352.576,1.407.736,1.727.384l.1-.1h0a24.391,24.391,0,0,0,1.727-2.239c.416.416.863.831,1.311,1.215.256.192.48.384.7.544a8.01,8.01,0,0,0-.224.831c-.192.672,1.535.384,1.759.256a1.156,1.156,0,0,0,.48-.48c.1-.128.032-.256-.128-.352.256-.064.512-.224.384-.512a.5.5,0,0,0-.224-.224c.128-.448.288-.863.416-1.311a6.141,6.141,0,0,0,1.439,1.567c.7.544,2.494,1.311,3.038.128C501.262,444.088,500.206,443.832,499.6,444.024Z" transform="translate(-460.18 -430.377)" fill="#573724" stroke="#573724" stroke-miterlimit="10" stroke-width="1"/><path d="M533.466,426.833c-.416-.672-.288-2.015-.32-2.878-.064-1.087-.128-2.175-.16-3.262-.1-2.111-.224-4.189-.32-6.3-.032-.768-1.919-.736-1.887-.032.1,1.631.16,3.294.256,4.925a2.15,2.15,0,0,0-.768-.128,1.437,1.437,0,0,0-.768.192,3.523,3.523,0,0,0-.576.064,1.085,1.085,0,0,0-.448.16,2.132,2.132,0,0,0-.416-.8,3.176,3.176,0,0,0-1.535-1.055.54.54,0,0,0-.224-.32,1.427,1.427,0,0,0-1.343,0,5.645,5.645,0,0,0-.736.608c-.064.032-.128.1-.192.128a.291.291,0,0,0-.128.256,3.138,3.138,0,0,0-.7,2.718c.48,1.6,2.878,1.695,3.965,1.247a2.425,2.425,0,0,0,1.407-1.951,1.709,1.709,0,0,0,.863.1,8.869,8.869,0,0,1,1.311-.032,1.433,1.433,0,0,0,.352-.032c0,.256.032.48.032.736.064,1.087.128,2.175.16,3.262a5.862,5.862,0,0,0,.352,2.718C532,427.664,533.818,427.377,533.466,426.833Zm-7.995-5.469c-.959-.48-.416-1.887.256-2.718a2.7,2.7,0,0,1,.544.448,1.746,1.746,0,0,1,.416,1.151C526.687,421.013,526.111,421.716,525.471,421.364Z" transform="translate(-483.75 -412.963)" fill="#573724" stroke="#573724" stroke-miterlimit="10" stroke-width="1"/><path d="M572.3,424.874a9.654,9.654,0,0,1-2.718.16h-.352a.345.345,0,0,0,.064-.256,40.735,40.735,0,0,1-.16-6.556.363.363,0,0,0-.1-.256,4.407,4.407,0,0,0,.576-4.477c-1.055-1.951-4.189-2.015-5.661-.768a3.3,3.3,0,0,0-1.727,3.646,3.956,3.956,0,0,0,1.855,3.038c-.032.927-.032,1.855-.064,2.782a13.4,13.4,0,0,0-.032,2.526.637.637,0,0,0,.256.384c-.7,0-1.407.032-2.079.032-.256,0-.959.064-.959.512s.7.544.927.544l5.724-.1c1.7-.032,3.678.288,5.309-.32C574.408,425.354,572.9,424.619,572.3,424.874Zm-8.123-8.219a3.765,3.765,0,0,1,.032-1.887,2.688,2.688,0,0,1,.8-1.247.948.948,0,0,0,.32-.064c.352.1,1.023.192,1.279-.192a.511.511,0,0,0,.1-.256,1.937,1.937,0,0,1,1.343,1.855,5.039,5.039,0,0,1-1.375,3.518C565.453,419.438,564.494,418.031,564.174,416.656Zm1.6,8.411c.064-.064.128-.1.16-.192l.032-.032a.3.3,0,0,0-.1-.384c-.064-.7.064-1.6.064-2.239,0-.768.032-1.567.032-2.335a3.3,3.3,0,0,0,1.087-.224.243.243,0,0,0,.128-.064,39.625,39.625,0,0,0,.224,5.149.336.336,0,0,0,.16.288h-.384C566.7,425.066,566.253,425.066,565.773,425.066Z" transform="translate(-509.661 -411.644)" fill="#573724" stroke="#573724" stroke-miterlimit="10" stroke-width="1"/><path d="M609.515,412.079a3.3,3.3,0,0,0-4.221-.352c-1.663,1.183-1.919,3.55-1.279,5.6.192.64,2.047.512,1.823-.256a5.571,5.571,0,0,1-.192-2.718c.16-.768.7-1.983,1.471-2.111.8-.16,1.247,1.055,1.279,1.791a5.252,5.252,0,0,1-.48,2.43,4.041,4.041,0,0,1-1.5,1.823c-.576.384-.672.608-.64,1.407.032,1.023.064,2.079.192,3.1a1.3,1.3,0,0,0,.64,1.151,1.344,1.344,0,0,0,1.343,0c.32-.224.384-.512,0-.736-.224-.128-.16-1.471-.16-1.727a8.662,8.662,0,0,1-.16-2.207c.128-.384.576-.512.831-.736a4.616,4.616,0,0,0,.863-1.055C610.251,415.981,610.826,413.486,609.515,412.079Z" transform="translate(-538.564 -411.129)" fill="#573724" stroke="#573724" stroke-miterlimit="10" stroke-width="1"/><path d="M614.136,454.85a1.287,1.287,0,0,0-.64-.288,1.816,1.816,0,0,0-.927.1.851.851,0,0,0-.576.608.644.644,0,0,0,.384.608,1.607,1.607,0,0,0,.768.192,2.386,2.386,0,0,0,.64-.1.618.618,0,0,0,.352-1.119Z" transform="translate(-544.208 -440.66)" fill="#573724" stroke="#573724" stroke-miterlimit="10" stroke-width="1"/><path d="M407.479,418.895a26.186,26.186,0,0,1-2.143-1.695c.959-.736,1.919-1.5,2.878-2.271.672-.544-.9-.768-1.119-.736l-6.332.768c-.288.032-.832.192-.7.608.128.384.959.384,1.247.352,1.311-.16,2.622-.32,3.9-.48-.512.416-1.023.8-1.535,1.183-1.375.064-2.367,1.343-3.2,2.462-.48.608,1.535.608,1.823.384.608-.448,1.215-.927,1.855-1.375h.032c.224.192.48.384.7.576a6.457,6.457,0,0,0,2.942,1.407c.352.064,1.055.032,1.247-.32.1-.16.16-.32.256-.48C409.589,418.767,408.022,418.511,407.479,418.895Z" transform="translate(-400.04 -413.211)" fill="#573724" stroke="#573724" stroke-miterlimit="10" stroke-width="1"/><path d="M431.839,418.129a8.136,8.136,0,0,1-.736-5.213c.1-.608-1.887-.736-2.015-.032a8.507,8.507,0,0,0,.8,5.469C430.208,418.961,432.159,418.769,431.839,418.129Z" transform="translate(-419.699 -411.998)" fill="#573724" stroke="#573724" stroke-miterlimit="10" stroke-width="1"/><path d="M417.611,443.752a5.076,5.076,0,0,1-2.59.064c-.863-.192-1.759-.991-1.087-1.983.832-1.215,2.942.1,3.806-1.375,1.567-2.654-5.309-1.727-6.108-1.567-.352.064-.608.352-.352.672.256.352,1.023.256,1.375.192a7,7,0,0,1,2.686-.256c.352-.1.544.1.544.544a.59.59,0,0,1-.735.288,8.987,8.987,0,0,1-.927.032c-1.055.128-2.494.768-2.526,2.079-.1,2.974,5.309,2.686,6.94,2.143C419.882,444.232,418.283,443.56,417.611,443.752Z" transform="translate(-407.615 -429.818)" fill="#573724" stroke="#573724" stroke-miterlimit="10" stroke-width="1"/><path d="M452.026,419.082c0-.16-.16-.288-.288-.352-.032-.032-.064-.032-.128-.064a.958.958,0,0,0-.32-.128,13.887,13.887,0,0,1,0-1.631c.032-.7.256-2.047-.32-2.622-.544-.544-1.567-.288-2.207-.192a13.3,13.3,0,0,0-2.015.544c-.544-.032-1.119.1-1.151.448-.256.16-.192.416.032.576q.048,1.007,0,2.015a7.006,7.006,0,0,0-.16,2.143c.032.032.032.1.064.128h0c.032.128.16.224.352.288a1.76,1.76,0,0,0,1.6,0c.768-.1,1.5-.192,2.271-.288.032,0,.064.032.1.032.352.1,1.151.16,1.439-.224C451.707,419.689,452.026,419.5,452.026,419.082Zm-4.541.16a34.24,34.24,0,0,0,.16-3.678,8.446,8.446,0,0,1,1.279-.384,1.647,1.647,0,0,1,.352-.064c.032.256.064.64.064.672,0,.64-.032,1.247-.064,1.887,0,.224.128.863.16,1.343-.352.032-.7.1-1.055.128C448.093,419.177,447.773,419.209,447.485,419.241Z" transform="translate(-430.9 -413.047)" fill="#573724" stroke="#573724" stroke-miterlimit="10" stroke-width="1"/><path d="M451.747,435.281c-2.047.32-4.669.672-6.716,1.087-.352.064-.608.352-.352.672.256.352,1.023.256,1.375.192.192-.032,1.375-.064,1.6-.128.1.384.224.736.32,1.119a3.029,3.029,0,0,1,.224.927.407.407,0,0,0-.288.352c0,.416.736.48.991.512.64.064,1.407-.256,1.311-1.055a11.484,11.484,0,0,0-.64-2.207c.7-.128.991-.256,1.695-.352.032.032.1.032.128.064a1.6,1.6,0,0,0,1.375-.16c.224-.16.288-.256.256-.512C453.026,435.281,452.035,435.249,451.747,435.281Z" transform="translate(-430.333 -427.551)" fill="#573724" stroke="#573724" stroke-miterlimit="10" stroke-width="1"/><path d="M451.206,448a28.25,28.25,0,0,1-4.317.7c-.512,0-.256.192-.192-.256a5.845,5.845,0,0,1,.192-.8,1.784,1.784,0,0,0-.064-1.407c-.32-.608-2.271-.384-1.951.256.416.768-.384,1.535-.16,2.335a1.41,1.41,0,0,0,1.247.959,7.278,7.278,0,0,0,2.622-.288c1.055-.16,2.111-.352,3.134-.512C453.093,448.736,452.134,447.84,451.206,448Z" transform="translate(-430.4 -434.77)" fill="#573724" stroke="#573724" stroke-miterlimit="10" stroke-width="1"/></g></g><g transform="translate(295.772 215.941)"><path d="M574.155,498.7A8.148,8.148,0,0,0,566,506.855a8.051,8.051,0,0,0,1.215,4.253h2.3c0-.128-.032-.256-.032-.384a4.733,4.733,0,1,1,9.466,0,1.557,1.557,0,0,1-.032.384h2.175a8.05,8.05,0,0,0,1.215-4.253A8.148,8.148,0,0,0,574.155,498.7Z" transform="translate(-515.248 -498.7)" fill="#573724"/><path d="M486.6,565.8v.544c0,5.6,3.486,10.138,7.8,10.138s7.8-4.541,7.8-10.138V565.8Z" transform="translate(-461.24 -544.341)" fill="#573724"/><path d="M415.455,498.7a8.148,8.148,0,0,0-8.155,8.155,8.051,8.051,0,0,0,1.215,4.253h2.079c0-.128-.032-.256-.032-.384a4.733,4.733,0,1,1,9.466,0,1.557,1.557,0,0,1-.032.384h2.4a8.051,8.051,0,0,0,1.215-4.253A8.148,8.148,0,0,0,415.455,498.7Z" transform="translate(-407.3 -498.7)" fill="#573724"/></g></g></g></svg>