<svg xmlns="http://www.w3.org/2000/svg" width="290.27" height="82.018" viewBox="0 0 290.27 82.018"><g transform="translate(-814.912 -1873.405)"><g transform="translate(814 1669.56)"><g transform="translate(1 204.44)"><path d="M144.522,285.358q.769,0,1.525-.014.756.014,1.525.014v-.064c35.1-1.53,45.244-29.473,69.741-43.737,25.2-14.668,73.781-11.018,73.781-11.018L147.573,204.98v-.54c-.1.018-.613.109-1.525.268-.913-.159-1.421-.25-1.525-.268v.54L1,230.539s48.585-3.65,73.781,11.018c24.5,14.264,34.643,42.207,69.741,43.737Z" transform="translate(-1 -204.44)" fill="#fff"/><path d="M144.522,285.358q.769,0,1.525-.014.756.014,1.525.014v-.064c35.1-1.53,45.244-29.473,69.741-43.737,25.2-14.668,73.781-11.018,73.781-11.018L147.573,204.98v-.54c-.1.018-.613.109-1.525.268-.913-.159-1.421-.25-1.525-.268v.54L1,230.539s48.585-3.65,73.781,11.018c24.5,14.264,34.643,42.207,69.741,43.737Z" transform="translate(-1 -204.44)" fill="rgba(0,0,0,0)" stroke="rgba(0,0,0,0)" stroke-width="1"/><g transform="translate(137.412 33.59)"><path d="M303.68,278.43l7.636,12.212,7.636-12.212Z" transform="translate(-303.68 -278.43)" fill="rgba(0,0,0,0)"/><path d="M303.68,278.43l7.636,12.212,7.636-12.212Z" transform="translate(-303.68 -278.43)" fill="rgba(0,0,0,0)" stroke="#f2a343" stroke-width="2"/></g></g></g><g transform="translate(923 1874)"><rect width="73.041" height="73.041" rx="36.521" fill="#fff"/><path d="M188.5,175.028c0,3.368-6.032,11.789-13.473,11.789s-13.473-8.421-13.473-11.789a13.473,13.473,0,1,1,26.947,0Z" transform="translate(-138.508 -138.508)" fill="#d80027"/><path d="M188.5,256a13.473,13.473,0,1,1-26.947,0" transform="translate(-138.508 -219.479)" fill="#0052b4"/><rect width="5.053" height="3.368" transform="translate(50.812 48.431) rotate(-45)"/><rect width="5.052" height="3.368" transform="translate(44.858 54.385) rotate(-45)"/><rect width="5.053" height="3.368" transform="translate(57.958 55.573) rotate(-45)"/><rect width="5.052" height="3.368" transform="translate(52.003 61.53) rotate(-45)"/><rect width="5.052" height="3.368" transform="translate(54.385 52.002) rotate(-45)"/><rect width="5.052" height="3.368" transform="translate(48.431 57.958) rotate(-45)"/><rect width="13.473" height="3.368" transform="translate(57.956 24.61) rotate(-135)"/><rect width="5.053" height="3.368" transform="translate(48.432 22.228) rotate(-135)"/><rect width="5.052" height="3.368" transform="translate(54.384 28.183) rotate(-135)"/><rect width="5.053" height="3.368" transform="translate(55.574 15.084) rotate(-135)"/><rect width="5.052" height="3.368" transform="translate(61.53 21.037) rotate(-135)"/><rect width="13.473" height="3.368" transform="translate(11.511 52.003) rotate(45)"/><rect width="5.053" height="3.368" transform="translate(21.037 54.384) rotate(45)"/><rect width="5.053" height="3.368" transform="translate(15.084 48.43) rotate(45)"/><rect width="13.473" height="3.368" transform="translate(18.657 44.858) rotate(45)"/><rect width="13.473" height="3.368" transform="translate(21.038 11.512) rotate(135)"/><rect width="13.473" height="3.368" transform="translate(24.61 15.085) rotate(135)"/><rect width="13.473" height="3.368" transform="translate(28.183 18.657) rotate(135)"/></g></g></svg>