<svg xmlns="http://www.w3.org/2000/svg" width="126" height="126" viewBox="0 0 126 126"><path d="M205.169,176.808l-8.663-1.923c-3.3-.751-7.089-1.743-7.089-4.85s2.661-5.289,7.465-5.289c9.681,0,8.8,6.653,13.6,6.653,2.529,0,4.743-1.487,4.743-4.044,0-5.967-9.55-10.445-17.65-10.445-8.794,0-18.159,3.735-18.159,13.681,0,4.79,1.711,9.886,11.138,12.25l11.7,2.922c3.542.873,4.429,2.866,4.429,4.663,0,2.99-2.969,5.91-8.349,5.91-10.508,0-9.05-8.087-14.681-8.087a4.138,4.138,0,0,0-4.366,4.23c0,4.849,5.887,11.319,19.047,11.319,12.521,0,18.725-6.035,18.725-14.118,0-5.219-2.406-10.76-11.9-12.875Zm0,0" transform="translate(-135.17 -118.296)" fill="#feb47b"/><path d="M63,0a63,63,0,1,0,63,63A63.007,63.007,0,0,0,63,0ZM95.8,95.707a21.913,21.913,0,0,1-26.292,3.579,37.228,37.228,0,0,1-6.487.577A37.019,37.019,0,0,1,25.978,62.818a37.311,37.311,0,0,1,.558-6.385A21.916,21.916,0,0,1,55.99,26.442a.093.093,0,0,0,.017,0,37.359,37.359,0,0,1,7.015-.662,37.016,37.016,0,0,1,37.042,37.042,37.262,37.262,0,0,1-.617,6.715A21.909,21.909,0,0,1,95.8,95.707Zm0,0" fill="#feb47b"/></svg>