<svg xmlns="http://www.w3.org/2000/svg" width="60" height="60" viewBox="0 0 60 60"><path d="M30,0A30,30,0,1,0,60,30,30,30,0,0,0,30,0Zm.636,47.467h-.007a17.948,17.948,0,0,1-8.581-2.185l-9.518,2.5,2.547-9.3a17.956,17.956,0,1,1,15.559,8.99Zm0,0" fill="#fff"/><path d="M149,124.469a14.926,14.926,0,0,0-12.648,22.858l.355.564L135.2,153.4l5.648-1.481.545.323a14.9,14.9,0,0,0,7.6,2.08h.006A14.924,14.924,0,0,0,149,124.469Zm8.778,21.332c-.374,1.047-2.166,2-3.028,2.133a6.157,6.157,0,0,1-2.826-.178,25.91,25.91,0,0,1-2.558-.945c-4.5-1.943-7.44-6.473-7.664-6.772a8.724,8.724,0,0,1-1.832-4.64,5.029,5.029,0,0,1,1.57-3.741,1.649,1.649,0,0,1,1.2-.561c.3,0,.6,0,.86.016s.645-.1,1.009.77c.374.9,1.271,3.105,1.383,3.33a.827.827,0,0,1,.038.786,12.784,12.784,0,0,1-1.122,1.534c-.2.247-.459.466-.2.916a13.524,13.524,0,0,0,2.5,3.107,12.264,12.264,0,0,0,3.608,2.226c.448.224.71.187.972-.112s1.122-1.31,1.42-1.759.6-.374,1.009-.224,2.617,1.235,3.066,1.459.748.337.86.524a3.742,3.742,0,0,1-.261,2.133Zm0,0" transform="translate(-118.36 -109.883)" fill="#fff"/></svg>